<svg xmlns="http://www.w3.org/2000/svg" viewBox="0 0 1100 750" font-family="'Segoe UI', 'Helvetica Neue', Arial, sans-serif">
  <defs>
    <linearGradient id="bgGrad" x1="0" y1="0" x2="0" y2="1">
      <stop offset="0%" stop-color="#0f172a"/>
      <stop offset="100%" stop-color="#1e293b"/>
    </linearGradient>
    <filter id="glow">
      <feGaussianBlur stdDeviation="2.5" result="blur"/>
      <feMerge><feMergeNode in="blur"/><feMergeNode in="SourceGraphic"/></feMerge>
    </filter>
    <filter id="shadow">
      <feDropShadow dx="0" dy="2" stdDeviation="4" flood-color="#000" flood-opacity="0.35"/>
    </filter>
    <marker id="arrowRed" markerWidth="10" markerHeight="7" refX="9" refY="3.5" orient="auto">
      <polygon points="0 0, 10 3.5, 0 7" fill="#ef4444"/>
    </marker>
    <marker id="arrowBlue" markerWidth="10" markerHeight="7" refX="9" refY="3.5" orient="auto">
      <polygon points="0 0, 10 3.5, 0 7" fill="#3b82f6"/>
    </marker>
    <marker id="arrowPurple" markerWidth="10" markerHeight="7" refX="9" refY="3.5" orient="auto">
      <polygon points="0 0, 10 3.5, 0 7" fill="#a855f7"/>
    </marker>
  </defs>

  <!-- Background -->
  <rect width="1100" height="750" fill="url(#bgGrad)" rx="12"/>

  <!-- ===== Title ===== -->
  <text x="380" y="38" text-anchor="middle" fill="#f8fafc" font-size="22" font-weight="700">postMessage Vulnerability Attack Flow</text>
  <text x="380" y="58" text-anchor="middle" fill="#94a3b8" font-size="12">postMessage&#33030;&#24369;&#24615; &#8212; &#25915;&#25731;&#12398;&#27969;&#12428;</text>
  <rect x="270" y="66" width="220" height="20" rx="10" fill="#ef4444" opacity="0.15"/>
  <text x="380" y="80" text-anchor="middle" fill="#fca5a5" font-size="10" font-weight="600">OWASP A04 &#8212; Insecure Design</text>

  <!-- ====================================================== -->
  <!--  ACTORS                                                 -->
  <!-- ====================================================== -->

  <!-- Attacker (evil.com) -->
  <g transform="translate(115, 250)" filter="url(#shadow)">
    <rect x="-56" y="-30" width="112" height="125" rx="12" fill="#1e1b2e" stroke="#ef4444" stroke-width="1.5"/>
    <g transform="translate(0, 10)">
      <path d="M-13,-17 Q0,-28 13,-17 L13,-4 Q0,2 -13,-4 Z" fill="none" stroke="#ef4444" stroke-width="1.8"/>
      <circle cx="-4" cy="-9" r="1.8" fill="#ef4444"/>
      <circle cx="4" cy="-9" r="1.8" fill="#ef4444"/>
      <path d="M-17,36 Q-17,14 0,10 Q17,14 17,36" fill="none" stroke="#ef4444" stroke-width="2"/>
      <line x1="-17" y1="36" x2="17" y2="36" stroke="#ef4444" stroke-width="2" stroke-linecap="round"/>
    </g>
    <text x="0" y="72" text-anchor="middle" fill="#fca5a5" font-size="13" font-weight="700">&#25915;&#25731;&#32773;</text>
    <text x="0" y="86" text-anchor="middle" fill="#ef4444" font-size="9.5" opacity="0.7">evil.com</text>
  </g>

  <!-- Victim Browser -->
  <g transform="translate(380, 250)" filter="url(#shadow)">
    <rect x="-56" y="-30" width="112" height="125" rx="12" fill="#1e1b2e" stroke="#a855f7" stroke-width="1.5"/>
    <g transform="translate(0, 10)">
      <circle cx="0" cy="-9" r="13" fill="none" stroke="#a855f7" stroke-width="1.8"/>
      <circle cx="-4" cy="-11" r="1.5" fill="#a855f7"/>
      <circle cx="4" cy="-11" r="1.5" fill="#a855f7"/>
      <path d="M-4,-4 Q0,1 4,-4" fill="none" stroke="#a855f7" stroke-width="1.3" stroke-linecap="round"/>
      <path d="M-17,36 Q-17,14 0,10 Q17,14 17,36" fill="none" stroke="#a855f7" stroke-width="2"/>
      <line x1="-17" y1="36" x2="17" y2="36" stroke="#a855f7" stroke-width="2" stroke-linecap="round"/>
    </g>
    <text x="0" y="72" text-anchor="middle" fill="#d8b4fe" font-size="13" font-weight="700">&#34987;&#23475;&#32773;&#12502;&#12521;&#12454;&#12470;</text>
    <text x="0" y="86" text-anchor="middle" fill="#a855f7" font-size="9.5" opacity="0.7">Victim Browser</text>
  </g>

  <!-- Target App -->
  <g transform="translate(645, 250)" filter="url(#shadow)">
    <rect x="-56" y="-30" width="112" height="125" rx="12" fill="#1e1b2e" stroke="#3b82f6" stroke-width="1.5"/>
    <g transform="translate(0, 14)">
      <rect x="-20" y="-18" width="40" height="12" rx="3" fill="none" stroke="#3b82f6" stroke-width="1.5"/>
      <circle cx="-12" cy="-12" r="2" fill="#3b82f6"/><circle cx="-5" cy="-12" r="2" fill="#3b82f6"/>
      <rect x="-20" y="-2" width="40" height="12" rx="3" fill="none" stroke="#3b82f6" stroke-width="1.5"/>
      <circle cx="-12" cy="4" r="2" fill="#3b82f6"/><circle cx="-5" cy="4" r="2" fill="#3b82f6"/>
      <rect x="-20" y="14" width="40" height="12" rx="3" fill="none" stroke="#3b82f6" stroke-width="1.5"/>
      <circle cx="-12" cy="20" r="2" fill="#3b82f6"/><circle cx="-5" cy="20" r="2" fill="#3b82f6"/>
    </g>
    <text x="0" y="72" text-anchor="middle" fill="#93c5fd" font-size="13" font-weight="700">&#27491;&#35215;&#12450;&#12503;&#12522;</text>
    <text x="0" y="86" text-anchor="middle" fill="#3b82f6" font-size="9.5" opacity="0.7">Target App</text>
  </g>

  <!-- ====================================================== -->
  <!--  ARROWS                                                 -->
  <!-- ====================================================== -->

  <!-- Step 1: Attacker embeds target in iframe -->
  <path d="M 171 240 L 322 240" fill="none" stroke="#ef4444" stroke-width="2.2" stroke-dasharray="8,4" marker-end="url(#arrowRed)"/>
  <circle cx="246" cy="218" r="16" fill="#ef4444"/>
  <text x="246" y="223" text-anchor="middle" fill="#fff" font-size="13" font-weight="700">1</text>

  <!-- Step 2: Sends malicious postMessage (attacker → victim iframe) -->
  <path d="M 170 275 Q 260 335 324 275" fill="none" stroke="#ef4444" stroke-width="2.2" stroke-dasharray="8,4" marker-end="url(#arrowRed)"/>
  <circle cx="248" cy="325" r="16" fill="#ef4444"/>
  <text x="248" y="330" text-anchor="middle" fill="#fff" font-size="13" font-weight="700">2</text>

  <!-- Step 3: Target receives without origin check (victim → target app) -->
  <path d="M 436 250 L 587 250" fill="none" stroke="#a855f7" stroke-width="2.2" marker-end="url(#arrowPurple)"/>
  <circle cx="514" cy="228" r="16" fill="#a855f7"/>
  <text x="514" y="233" text-anchor="middle" fill="#fff" font-size="13" font-weight="700">3</text>

  <!-- Step 4: Malicious action executed (DOM manipulation) -->
  <path d="M 645 345 L 645 410" fill="none" stroke="#3b82f6" stroke-width="2.2" stroke-dasharray="6,3" marker-end="url(#arrowBlue)"/>
  <circle cx="669" cy="378" r="16" fill="#3b82f6"/>
  <text x="669" y="383" text-anchor="middle" fill="#fff" font-size="13" font-weight="700">4</text>

  <!-- Step 5: Data/session leaked back to attacker (curve below) -->
  <path d="M 580 480 C 520 620, 200 620, 115 345" fill="none" stroke="#ef4444" stroke-width="2.2" stroke-dasharray="8,4" marker-end="url(#arrowRed)"/>
  <circle cx="330" cy="610" r="16" fill="#ef4444"/>
  <text x="330" y="615" text-anchor="middle" fill="#fff" font-size="13" font-weight="700">5</text>

  <!-- ===== Vulnerability callout ===== -->
  <g transform="translate(380, 420)" filter="url(#shadow)">
    <rect x="-155" y="-18" width="310" height="62" rx="8" fill="#451a03" stroke="#f97316" stroke-width="1"/>
    <text x="0" y="-1" text-anchor="middle" fill="#fdba74" font-size="11" font-weight="700">&#9888; origin&#26410;&#26908;&#35388;&#12398;&#12513;&#12483;&#12475;&#12540;&#12472;&#12495;&#12531;&#12489;&#12521;</text>
    <text x="0" y="16" text-anchor="middle" fill="#fb923c" font-size="9" font-family="'Fira Code', monospace">addEventListener('message', (e) =&gt; {</text>
    <text x="0" y="28" text-anchor="middle" fill="#fb923c" font-size="9" font-family="'Fira Code', monospace">  /* no origin check */ eval(e.data) })</text>
    <text x="0" y="40" text-anchor="middle" fill="#fed7aa" font-size="8.5">&#20219;&#24847;&#12398;origin&#12363;&#12425;&#12398;&#12513;&#12483;&#12475;&#12540;&#12472;&#12434;&#28961;&#26465;&#20214;&#12395;&#23455;&#34892;</text>
  </g>

  <!-- ===== Malicious code callout ===== -->
  <g transform="translate(380, 530)">
    <rect x="-195" y="-14" width="390" height="28" rx="5" fill="#0f172a" stroke="#334155" stroke-width="1"/>
    <text x="0" y="4" text-anchor="middle" fill="#94a3b8" font-size="9.5" font-family="'Fira Code', monospace">
      <tspan fill="#ef4444">targetWindow</tspan><tspan fill="#93c5fd">.postMessage(</tspan><tspan fill="#fca5a5">payload</tspan><tspan fill="#93c5fd">, </tspan><tspan fill="#ef4444" font-weight="700">'*'</tspan><tspan fill="#93c5fd">)</tspan>
    </text>
  </g>

  <!-- Server action box (DOM manipulation) -->
  <g transform="translate(645, 462)" filter="url(#shadow)">
    <rect x="-68" y="-28" width="136" height="70" rx="8" fill="#1e1b2e" stroke="#3b82f6" stroke-width="1.2" stroke-dasharray="4,2"/>
    <rect x="-58" y="-20" width="116" height="13" rx="3" fill="#0f172a"/>
    <circle cx="-48" cy="-14" r="2.5" fill="#ef4444"/>
    <circle cx="-40" cy="-14" r="2.5" fill="#f59e0b"/>
    <circle cx="-32" cy="-14" r="2.5" fill="#22c55e"/>
    <text x="0" y="6" text-anchor="middle" fill="#fca5a5" font-size="10" font-weight="600">DOM&#25805;&#20316;&#23455;&#34892;</text>
    <text x="0" y="20" text-anchor="middle" fill="#94a3b8" font-size="9" font-family="'Fira Code', monospace">eval(e.data)</text>
    <text x="0" y="34" text-anchor="middle" fill="#ef4444" font-size="8.5">&#24847;&#22259;&#12375;&#12394;&#12356;&#12467;&#12540;&#12489;&#23455;&#34892;</text>
  </g>

  <!-- ====================================================== -->
  <!--  STEP LIST (right sidebar)                              -->
  <!-- ====================================================== -->
  <g transform="translate(775, 100)">
    <rect x="0" y="0" width="305" height="336" rx="10" fill="#0f172a" stroke="#334155" stroke-width="1"/>
    <text x="152" y="28" text-anchor="middle" fill="#e2e8f0" font-size="14" font-weight="700">&#25915;&#25731;&#12473;&#12486;&#12483;&#12503;&#35443;&#32048;</text>
    <line x1="16" y1="40" x2="289" y2="40" stroke="#334155" stroke-width="1"/>

    <!-- Step 1 -->
    <circle cx="34" cy="68" r="13" fill="#ef4444"/>
    <text x="34" y="73" text-anchor="middle" fill="#fff" font-size="11" font-weight="700">1</text>
    <text x="56" y="64" fill="#f8fafc" font-size="11.5" font-weight="600">&#12479;&#12540;&#12466;&#12483;&#12488;&#12434;iframe&#12395;&#22475;&#12417;&#36796;&#12415;</text>
    <text x="56" y="80" fill="#94a3b8" font-size="9.5">evil.com&#12364;&#27491;&#35215;&#12450;&#12503;&#12522;&#12434;</text>
    <text x="56" y="93" fill="#94a3b8" font-size="9.5">iframe&#12391;&#35501;&#12415;&#36796;&#12416;</text>

    <!-- Step 2 -->
    <circle cx="34" cy="124" r="13" fill="#ef4444"/>
    <text x="34" y="129" text-anchor="middle" fill="#fff" font-size="11" font-weight="700">2</text>
    <text x="56" y="120" fill="#f8fafc" font-size="11.5" font-weight="600">&#24746;&#24847;&#12354;&#12427;postMessage&#36865;&#20449;</text>
    <text x="56" y="136" fill="#94a3b8" font-size="9.5">postMessage(payload, '*')&#12391;</text>
    <text x="56" y="149" fill="#94a3b8" font-size="9.5">&#24746;&#24847;&#12354;&#12427;&#12487;&#12540;&#12479;&#12434;&#36865;&#20449;</text>

    <!-- Step 3 -->
    <circle cx="34" cy="180" r="13" fill="#a855f7"/>
    <text x="34" y="185" text-anchor="middle" fill="#fff" font-size="11" font-weight="700">3</text>
    <text x="56" y="176" fill="#f8fafc" font-size="11.5" font-weight="600">origin&#26908;&#35388;&#12394;&#12375;&#12391;&#21463;&#20449;</text>
    <text x="56" y="192" fill="#94a3b8" font-size="9.5">&#12479;&#12540;&#12466;&#12483;&#12488;&#12364;e.origin&#12434;&#26908;&#35388;</text>
    <text x="56" y="205" fill="#94a3b8" font-size="9.5">&#12379;&#12378;&#12513;&#12483;&#12475;&#12540;&#12472;&#12434;&#20966;&#29702;</text>

    <!-- Step 4 -->
    <circle cx="34" cy="236" r="13" fill="#3b82f6"/>
    <text x="34" y="241" text-anchor="middle" fill="#fff" font-size="11" font-weight="700">4</text>
    <text x="56" y="232" fill="#f8fafc" font-size="11.5" font-weight="600">&#24746;&#24847;&#12354;&#12427;&#12467;&#12540;&#12489;&#23455;&#34892;</text>
    <text x="56" y="248" fill="#94a3b8" font-size="9.5">eval(e.data)&#12391;DOM&#25805;&#20316;&#12420;</text>
    <text x="56" y="261" fill="#94a3b8" font-size="9.5">&#12473;&#12463;&#12522;&#12503;&#12488;&#12364;&#23455;&#34892;&#12373;&#12428;&#12427;</text>

    <!-- Step 5 -->
    <circle cx="34" cy="292" r="13" fill="#ef4444"/>
    <text x="34" y="297" text-anchor="middle" fill="#fff" font-size="11" font-weight="700">5</text>
    <text x="56" y="288" fill="#f8fafc" font-size="11.5" font-weight="600">&#12487;&#12540;&#12479;/&#12475;&#12483;&#12471;&#12519;&#12531;&#28431;&#27945;</text>
    <text x="56" y="304" fill="#94a3b8" font-size="9.5">&#31428;&#21462;&#12375;&#12383;&#12487;&#12540;&#12479;&#12420;&#12475;&#12483;&#12471;&#12519;&#12531;&#12434;</text>
    <text x="56" y="317" fill="#94a3b8" font-size="9.5">&#25915;&#25731;&#32773;&#12398;&#12469;&#12540;&#12496;&#12540;&#12408;&#36865;&#20449;</text>
  </g>

  <!-- ====================================================== -->
  <!--  ATTACK TECHNIQUE CARDS (bottom)                        -->
  <!-- ====================================================== -->
  <line x1="30" y1="660" x2="1070" y2="660" stroke="#334155" stroke-width="1"/>
  <text x="550" y="685" text-anchor="middle" fill="#fca5a5" font-size="14" font-weight="700">&#128293; &#20351;&#29992;&#12373;&#12428;&#12427;&#25915;&#25731;&#12486;&#12463;&#12491;&#12483;&#12463;</text>

  <!-- Card: origin&#26410;&#26908;&#35388; -->
  <g transform="translate(165, 698)" filter="url(#shadow)">
    <rect x="-120" y="0" width="240" height="38" rx="8" fill="#1e1b2e" stroke="#ef4444" stroke-width="1"/>
    <rect x="-108" y="6" width="28" height="26" rx="5" fill="#ef4444" opacity="0.1"/>
    <g transform="translate(-94, 19)">
      <circle cx="0" cy="0" r="7" fill="none" stroke="#ef4444" stroke-width="1.2"/>
      <line x1="-3" y1="-3" x2="3" y2="3" stroke="#ef4444" stroke-width="1.5" stroke-linecap="round"/>
      <line x1="3" y1="-3" x2="-3" y2="3" stroke="#ef4444" stroke-width="1.5" stroke-linecap="round"/>
    </g>
    <text x="10" y="16" text-anchor="middle" fill="#f8fafc" font-size="11" font-weight="600">origin&#26410;&#26908;&#35388;</text>
    <text x="10" y="30" text-anchor="middle" fill="#94a3b8" font-size="8.5">e.origin&#12434;&#26908;&#35388;&#12379;&#12378;&#20966;&#29702;</text>
  </g>

  <!-- Card: iframe&#22475;&#12417;&#36796;&#12415; -->
  <g transform="translate(465, 698)" filter="url(#shadow)">
    <rect x="-120" y="0" width="240" height="38" rx="8" fill="#1e1b2e" stroke="#ef4444" stroke-width="1"/>
    <rect x="-108" y="6" width="28" height="26" rx="5" fill="#ef4444" opacity="0.1"/>
    <text x="-94" y="24" text-anchor="middle" fill="#ef4444" font-size="11" font-family="'Fira Code', monospace">&lt;/&gt;</text>
    <text x="10" y="16" text-anchor="middle" fill="#f8fafc" font-size="11" font-weight="600">iframe&#22475;&#12417;&#36796;&#12415;</text>
    <text x="10" y="30" text-anchor="middle" fill="#94a3b8" font-size="8.5">&#27491;&#35215;&#12450;&#12503;&#12522;&#12434;iframe&#12391;&#35501;&#12415;&#36796;&#12416;</text>
  </g>

  <!-- Card: DOM&#25805;&#20316;&#12398;&#24746;&#29992; -->
  <g transform="translate(765, 698)" filter="url(#shadow)">
    <rect x="-120" y="0" width="240" height="38" rx="8" fill="#1e1b2e" stroke="#ef4444" stroke-width="1"/>
    <rect x="-108" y="6" width="28" height="26" rx="5" fill="#ef4444" opacity="0.1"/>
    <g transform="translate(-94, 18)">
      <rect x="-8" y="-6" width="16" height="11" rx="2" fill="none" stroke="#ef4444" stroke-width="1.2"/>
      <text x="0" y="2" text-anchor="middle" fill="#ef4444" font-size="6" font-family="'Fira Code', monospace">JS</text>
    </g>
    <text x="10" y="16" text-anchor="middle" fill="#f8fafc" font-size="11" font-weight="600">DOM&#25805;&#20316;&#12398;&#24746;&#29992;</text>
    <text x="10" y="30" text-anchor="middle" fill="#94a3b8" font-size="8.5">eval&#12391;&#20219;&#24847;&#12467;&#12540;&#12489;&#12434;&#23455;&#34892;</text>
  </g>

  <!-- ===== Legend ===== -->
  <g transform="translate(775, 460)">
    <rect x="0" y="0" width="305" height="68" rx="6" fill="#0f172a" stroke="#334155" stroke-width="1"/>
    <text x="14" y="18" fill="#94a3b8" font-size="10" font-weight="600">&#20961;&#20363;</text>
    <line x1="14" y1="34" x2="44" y2="34" stroke="#ef4444" stroke-width="2" stroke-dasharray="6,3"/>
    <text x="52" y="38" fill="#fca5a5" font-size="9.5">&#25915;&#25731;&#36890;&#20449;</text>
    <line x1="152" y1="34" x2="182" y2="34" stroke="#3b82f6" stroke-width="2"/>
    <text x="190" y="38" fill="#93c5fd" font-size="9.5">&#12469;&#12540;&#12496;&#12540;&#24540;&#31572;</text>
    <line x1="14" y1="54" x2="44" y2="54" stroke="#a855f7" stroke-width="2"/>
    <text x="52" y="58" fill="#d8b4fe" font-size="9.5">&#12518;&#12540;&#12470;&#12540;&#36890;&#20449;</text>
    <rect x="152" y="48" width="12" height="12" rx="2" fill="#451a03" stroke="#f97316" stroke-width="0.8"/>
    <text x="170" y="58" fill="#fdba74" font-size="9.5">&#33030;&#24369;&#24615;&#12509;&#12452;&#12531;&#12488;</text>
  </g>

</svg>