<svg xmlns="http://www.w3.org/2000/svg" viewBox="0 0 1100 780" font-family="'Segoe UI', 'Helvetica Neue', Arial, sans-serif">
  <defs>
    <linearGradient id="bgGrad" x1="0" y1="0" x2="0" y2="1">
      <stop offset="0%" stop-color="#0f172a"/>
      <stop offset="100%" stop-color="#1e293b"/>
    </linearGradient>
    <filter id="shadow">
      <feDropShadow dx="0" dy="2" stdDeviation="4" flood-color="#000" flood-opacity="0.35"/>
    </filter>
    <filter id="glowGreen">
      <feGaussianBlur stdDeviation="3" result="blur"/>
      <feMerge><feMergeNode in="blur"/><feMergeNode in="SourceGraphic"/></feMerge>
    </filter>
    <marker id="arrowRed" markerWidth="10" markerHeight="7" refX="9" refY="3.5" orient="auto">
      <polygon points="0 0, 10 3.5, 0 7" fill="#ef4444"/>
    </marker>
    <marker id="arrowBlue" markerWidth="10" markerHeight="7" refX="9" refY="3.5" orient="auto">
      <polygon points="0 0, 10 3.5, 0 7" fill="#3b82f6"/>
    </marker>
    <marker id="arrowPurple" markerWidth="10" markerHeight="7" refX="9" refY="3.5" orient="auto">
      <polygon points="0 0, 10 3.5, 0 7" fill="#a855f7"/>
    </marker>
    <marker id="arrowGreen" markerWidth="10" markerHeight="7" refX="9" refY="3.5" orient="auto">
      <polygon points="0 0, 10 3.5, 0 7" fill="#22c55e"/>
    </marker>
  </defs>

  <!-- Background -->
  <rect width="1100" height="780" fill="url(#bgGrad)" rx="12"/>

  <!-- ===== Title ===== -->
  <text x="380" y="38" text-anchor="middle" fill="#f8fafc" font-size="22" font-weight="700">Cache Control Misconfiguration &#8212; Defense Strategy</text>
  <text x="380" y="58" text-anchor="middle" fill="#94a3b8" font-size="12">&#12461;&#12515;&#12483;&#12471;&#12517;&#21046;&#24481;&#12398;&#19981;&#20633;&#12395;&#23550;&#12377;&#12427;&#22810;&#23652;&#38450;&#24481;</text>
  <rect x="310" y="66" width="140" height="20" rx="10" fill="#22c55e" opacity="0.15"/>
  <text x="380" y="80" text-anchor="middle" fill="#86efac" font-size="10" font-weight="600">Multi-Layer Defense</text>

  <!-- ====================================================== -->
  <!--  SECURE COMMUNICATION (green line above actors)        -->
  <!-- ====================================================== -->
  <line x1="170" y1="175" x2="325" y2="175" stroke="#22c55e" stroke-width="2" marker-end="url(#arrowGreen)" filter="url(#glowGreen)"/>
  <line x1="325" y1="183" x2="170" y2="183" stroke="#22c55e" stroke-width="2" filter="url(#glowGreen)"/>
  <rect x="175" y="155" width="200" height="20" rx="6" fill="#052e16" stroke="#22c55e" stroke-width="0.8"/>
  <text x="275" y="169" text-anchor="middle" fill="#86efac" font-size="9.5" font-weight="600">&#128274; Cache-Control: no-store &#36969;&#29992;&#28168;</text>

  <!-- ====================================================== -->
  <!--  ACTORS                                                 -->
  <!-- ====================================================== -->

  <!-- Victim (Left - protected) -->
  <g transform="translate(115, 280)" filter="url(#shadow)">
    <rect x="-56" y="-30" width="112" height="125" rx="12" fill="#1e1b2e" stroke="#22c55e" stroke-width="1.5"/>
    <g transform="translate(0, 10)">
      <circle cx="0" cy="-9" r="13" fill="none" stroke="#a855f7" stroke-width="1.8"/>
      <circle cx="-4" cy="-11" r="1.5" fill="#a855f7"/>
      <circle cx="4" cy="-11" r="1.5" fill="#a855f7"/>
      <path d="M-4,-4 Q0,1 4,-4" fill="none" stroke="#a855f7" stroke-width="1.3" stroke-linecap="round"/>
      <path d="M-17,36 Q-17,14 0,10 Q17,14 17,36" fill="none" stroke="#a855f7" stroke-width="2"/>
      <line x1="-17" y1="36" x2="17" y2="36" stroke="#a855f7" stroke-width="2" stroke-linecap="round"/>
    </g>
    <g transform="translate(42, -22)">
      <path d="M0,-9 L9,-4 L9,3 Q9,9 0,12 Q-9,9 -9,3 L-9,-4 Z" fill="#22c55e" opacity="0.2" stroke="#22c55e" stroke-width="1.2"/>
      <polyline points="-3,2 -1,5 5,-2" fill="none" stroke="#22c55e" stroke-width="1.5" stroke-linecap="round"/>
    </g>
    <text x="0" y="72" text-anchor="middle" fill="#86efac" font-size="13" font-weight="700">&#34987;&#23475;&#32773;</text>
    <text x="0" y="86" text-anchor="middle" fill="#22c55e" font-size="9.5" opacity="0.7">Protected</text>
  </g>

  <!-- Web Server (Center - protected) -->
  <g transform="translate(380, 280)" filter="url(#shadow)">
    <rect x="-56" y="-30" width="112" height="125" rx="12" fill="#1e1b2e" stroke="#22c55e" stroke-width="1.5"/>
    <g transform="translate(0, 14)">
      <rect x="-20" y="-18" width="40" height="12" rx="3" fill="none" stroke="#3b82f6" stroke-width="1.5"/>
      <circle cx="-12" cy="-12" r="2" fill="#3b82f6"/><circle cx="-5" cy="-12" r="2" fill="#3b82f6"/>
      <rect x="-20" y="-2" width="40" height="12" rx="3" fill="none" stroke="#3b82f6" stroke-width="1.5"/>
      <circle cx="-12" cy="4" r="2" fill="#3b82f6"/><circle cx="-5" cy="4" r="2" fill="#3b82f6"/>
      <rect x="-20" y="14" width="40" height="12" rx="3" fill="none" stroke="#3b82f6" stroke-width="1.5"/>
      <circle cx="-12" cy="20" r="2" fill="#3b82f6"/><circle cx="-5" cy="20" r="2" fill="#3b82f6"/>
    </g>
    <g transform="translate(42, -22)">
      <path d="M0,-9 L9,-4 L9,3 Q9,9 0,12 Q-9,9 -9,3 L-9,-4 Z" fill="#22c55e" opacity="0.2" stroke="#22c55e" stroke-width="1.2"/>
      <polyline points="-3,2 -1,5 5,-2" fill="none" stroke="#22c55e" stroke-width="1.5" stroke-linecap="round"/>
    </g>
    <text x="0" y="72" text-anchor="middle" fill="#86efac" font-size="13" font-weight="700">Web&#12469;&#12540;&#12496;&#12540;</text>
    <text x="0" y="86" text-anchor="middle" fill="#22c55e" font-size="9.5" opacity="0.7">Protected Server</text>
  </g>

  <!-- Attacker (Right - dimmed) -->
  <g transform="translate(645, 280)" filter="url(#shadow)">
    <rect x="-56" y="-30" width="112" height="125" rx="12" fill="#1e1b2e" stroke="#ef4444" stroke-width="1.5" opacity="0.45"/>
    <g transform="translate(0, 10)" opacity="0.45">
      <path d="M-13,-17 Q0,-28 13,-17 L13,-4 Q0,2 -13,-4 Z" fill="none" stroke="#ef4444" stroke-width="1.8"/>
      <circle cx="-4" cy="-9" r="1.8" fill="#ef4444"/>
      <circle cx="4" cy="-9" r="1.8" fill="#ef4444"/>
      <path d="M-17,36 Q-17,14 0,10 Q17,14 17,36" fill="none" stroke="#ef4444" stroke-width="2"/>
      <line x1="-17" y1="36" x2="17" y2="36" stroke="#ef4444" stroke-width="2" stroke-linecap="round"/>
    </g>
    <text x="0" y="72" text-anchor="middle" fill="#fca5a5" font-size="13" font-weight="700" opacity="0.5">&#25915;&#25731;&#32773;</text>
    <text x="0" y="86" text-anchor="middle" fill="#ef4444" font-size="9.5" opacity="0.35">Attacker</text>
  </g>

  <!-- ====================================================== -->
  <!--  BLOCKED ARROWS                                         -->
  <!-- ====================================================== -->

  <!-- Attempted cache access: Attacker → Browser cache (blocked) -->
  <path d="M 600 310 C 500 420, 300 460, 195 460" fill="none" stroke="#ef4444" stroke-width="2" stroke-dasharray="4,3" opacity="0.25"/>
  <g transform="translate(380, 420)">
    <circle cx="0" cy="0" r="16" fill="#052e16" stroke="#22c55e" stroke-width="2" filter="url(#glowGreen)"/>
    <line x1="-6" y1="-6" x2="6" y2="6" stroke="#22c55e" stroke-width="2.5" stroke-linecap="round"/>
    <line x1="6" y1="-6" x2="-6" y2="6" stroke="#22c55e" stroke-width="2.5" stroke-linecap="round"/>
  </g>

  <!-- Attempted back button access (blocked) -->
  <path d="M 600 350 C 550 400, 250 400, 170 350" fill="none" stroke="#ef4444" stroke-width="2" stroke-dasharray="4,3" opacity="0.15"/>
  <g transform="translate(380, 385)">
    <circle cx="0" cy="0" r="12" fill="#052e16" stroke="#22c55e" stroke-width="1.5" filter="url(#glowGreen)"/>
    <line x1="-4" y1="-4" x2="4" y2="4" stroke="#22c55e" stroke-width="2" stroke-linecap="round"/>
    <line x1="4" y1="-4" x2="-4" y2="4" stroke="#22c55e" stroke-width="2" stroke-linecap="round"/>
  </g>

  <!-- Attacker sees empty cache (dimmed box) -->
  <g transform="translate(115, 460)" filter="url(#shadow)">
    <rect x="-78" y="-22" width="156" height="60" rx="8" fill="#1e1b2e" stroke="#ef4444" stroke-width="1" opacity="0.4" stroke-dasharray="4,2"/>
    <text x="0" y="-4" text-anchor="middle" fill="#fca5a5" font-size="10" font-weight="600" opacity="0.5">&#12461;&#12515;&#12483;&#12471;&#12517;&#12394;&#12375;</text>
    <text x="0" y="12" text-anchor="middle" fill="#94a3b8" font-size="8.5" font-family="'Fira Code', monospace" opacity="0.5">no-store &#8594; &#20445;&#23384;&#12373;&#12428;&#12394;&#12356;</text>
    <text x="0" y="28" text-anchor="middle" fill="#ef4444" font-size="8" opacity="0.4">&#12502;&#12521;&#12454;&#12470;&#12461;&#12515;&#12483;&#12471;&#12517;&#12399;&#31354;</text>
  </g>

  <!-- ====================================================== -->
  <!--  DEFENSE CARDS (2x2 grid, 250x120px)                    -->
  <!-- ====================================================== -->

  <!-- Defense 1: Cache-Control header (top-left) -->
  <g transform="translate(115, 555)" filter="url(#shadow)">
    <rect x="-52" y="-20" width="250" height="120" rx="8" fill="#052e16" stroke="#22c55e" stroke-width="1.5"/>
    <g transform="translate(-22, 16)">
      <path d="M0,-13 L12,-6 L12,3 Q12,11 0,15 Q-12,11 -12,3 L-12,-6 Z" fill="none" stroke="#22c55e" stroke-width="1.4"/>
      <polyline points="-4,1 -1,5 6,-4" fill="none" stroke="#22c55e" stroke-width="1.8" stroke-linecap="round" stroke-linejoin="round"/>
    </g>
    <text x="72" y="-3" text-anchor="middle" fill="#86efac" font-size="12" font-weight="700">Cache-Control&#12504;&#12483;&#12480;&#12540;&#35373;&#23450;</text>
    <text x="72" y="13" text-anchor="middle" fill="#bbf7d0" font-size="9">&#27231;&#23494;&#12506;&#12540;&#12472;&#12398;&#12461;&#12515;&#12483;&#12471;&#12517;&#12434;&#31105;&#27490;</text>
    <line x1="-38" y1="22" x2="184" y2="22" stroke="#22c55e" stroke-width="0.5" opacity="0.4"/>
    <text x="72" y="42" text-anchor="middle" fill="#22c55e" font-size="9" font-family="'Fira Code', monospace">Cache-Control: no-store,</text>
    <text x="72" y="58" text-anchor="middle" fill="#22c55e" font-size="9" font-family="'Fira Code', monospace">no-cache, must-revalidate</text>
    <text x="72" y="78" text-anchor="middle" fill="#4ade80" font-size="8.5">&#12502;&#12521;&#12454;&#12470;&#12539;&#12503;&#12525;&#12461;&#12471;&#12392;&#12418;&#12395;</text>
    <text x="72" y="92" text-anchor="middle" fill="#4ade80" font-size="8.5">&#12461;&#12515;&#12483;&#12471;&#12517;&#20445;&#23384;&#12434;&#23436;&#20840;&#12395;&#31105;&#27490;</text>
  </g>

  <!-- Defense 2: Pragma: no-cache (top-right) -->
  <g transform="translate(405, 555)" filter="url(#shadow)">
    <rect x="-52" y="-20" width="250" height="120" rx="8" fill="#052e16" stroke="#22c55e" stroke-width="1.5"/>
    <g transform="translate(-22, 16)">
      <rect x="-9" y="-2" width="18" height="14" rx="3" fill="none" stroke="#22c55e" stroke-width="1.4"/>
      <path d="M-5,-2 L-5,-7 Q-5,-12 0,-12 Q5,-12 5,-7 L5,-2" fill="none" stroke="#22c55e" stroke-width="1.4"/>
      <circle cx="0" cy="5" r="2" fill="#22c55e"/>
    </g>
    <text x="72" y="-3" text-anchor="middle" fill="#86efac" font-size="12" font-weight="700">Pragma: no-cache</text>
    <text x="72" y="13" text-anchor="middle" fill="#bbf7d0" font-size="9">HTTP/1.0&#20114;&#25563;&#12398;&#12461;&#12515;&#12483;&#12471;&#12517;&#21046;&#24481;</text>
    <line x1="-38" y1="22" x2="184" y2="22" stroke="#22c55e" stroke-width="0.5" opacity="0.4"/>
    <text x="72" y="42" text-anchor="middle" fill="#22c55e" font-size="9" font-family="'Fira Code', monospace">Pragma: no-cache</text>
    <text x="72" y="58" text-anchor="middle" fill="#22c55e" font-size="9" font-family="'Fira Code', monospace">Expires: 0</text>
    <text x="72" y="78" text-anchor="middle" fill="#4ade80" font-size="8.5">&#21476;&#12356;&#12503;&#12525;&#12461;&#12471;&#12420;&#12502;&#12521;&#12454;&#12470;&#12391;&#12418;</text>
    <text x="72" y="92" text-anchor="middle" fill="#4ade80" font-size="8.5">&#12461;&#12515;&#12483;&#12471;&#12517;&#12434;&#30906;&#23455;&#12395;&#38450;&#27490;</text>
  </g>

  <!-- Defense 3: Auto logout (bottom-left) -->
  <g transform="translate(115, 695)" filter="url(#shadow)">
    <rect x="-52" y="-20" width="250" height="72" rx="8" fill="#052e16" stroke="#22c55e" stroke-width="1.5"/>
    <g transform="translate(-22, 12)">
      <circle cx="0" cy="0" r="8" fill="none" stroke="#22c55e" stroke-width="1.2"/>
      <line x1="0" y1="-4" x2="0" y2="1" stroke="#22c55e" stroke-width="1.2" stroke-linecap="round"/>
      <line x1="0" y1="1" x2="4" y2="3" stroke="#22c55e" stroke-width="1.2" stroke-linecap="round"/>
    </g>
    <text x="72" y="-3" text-anchor="middle" fill="#86efac" font-size="12" font-weight="700">&#33258;&#21205;&#12525;&#12464;&#12450;&#12454;&#12488;</text>
    <text x="72" y="13" text-anchor="middle" fill="#bbf7d0" font-size="9">&#12475;&#12483;&#12471;&#12519;&#12531;&#12479;&#12452;&#12512;&#12450;&#12454;&#12488;&#12398;&#35373;&#23450;</text>
    <line x1="-38" y1="22" x2="184" y2="22" stroke="#22c55e" stroke-width="0.5" opacity="0.4"/>
    <text x="72" y="42" text-anchor="middle" fill="#22c55e" font-size="9" font-family="'Fira Code', monospace">maxAge: 15 * 60 * 1000 // 15min</text>
  </g>

  <!-- Defense 4: Secure Cookie (bottom-right) -->
  <g transform="translate(405, 695)" filter="url(#shadow)">
    <rect x="-52" y="-20" width="250" height="72" rx="8" fill="#052e16" stroke="#22c55e" stroke-width="1.5"/>
    <g transform="translate(-22, 12)">
      <circle cx="0" cy="3" r="7" fill="none" stroke="#22c55e" stroke-width="1.2"/>
      <path d="M-3,-1 Q0,-5 3,-1" fill="none" stroke="#22c55e" stroke-width="1"/>
      <path d="M-5,2 Q0,-3 5,2" fill="none" stroke="#22c55e" stroke-width="1"/>
    </g>
    <text x="72" y="-3" text-anchor="middle" fill="#86efac" font-size="12" font-weight="700">Secure&#23646;&#24615;Cookie</text>
    <text x="72" y="13" text-anchor="middle" fill="#bbf7d0" font-size="9">Cookie&#12398;&#12475;&#12461;&#12517;&#12522;&#12486;&#12451;&#24375;&#21270;</text>
    <line x1="-38" y1="22" x2="184" y2="22" stroke="#22c55e" stroke-width="0.5" opacity="0.4"/>
    <text x="72" y="42" text-anchor="middle" fill="#22c55e" font-size="9" font-family="'Fira Code', monospace">Set-Cookie: ...; Secure; HttpOnly</text>
  </g>

  <!-- ====================================================== -->
  <!--  DEFENSE SIDEBAR                                        -->
  <!-- ====================================================== -->
  <g transform="translate(785, 100)">
    <rect x="0" y="0" width="295" height="380" rx="10" fill="#0f172a" stroke="#22c55e" stroke-width="1"/>
    <text x="148" y="28" text-anchor="middle" fill="#86efac" font-size="14" font-weight="700">&#38450;&#24481;&#12524;&#12452;&#12516;&#12540;&#19968;&#35239;</text>
    <line x1="14" y1="42" x2="281" y2="42" stroke="#22c55e" stroke-width="0.5" opacity="0.5"/>

    <!-- Layer 1 -->
    <g transform="translate(18, 64)">
      <rect x="0" y="-8" width="18" height="18" rx="4" fill="#22c55e" opacity="0.15"/>
      <text x="9" y="6" text-anchor="middle" fill="#22c55e" font-size="11" font-weight="700">1</text>
      <text x="28" y="2" fill="#f8fafc" font-size="11" font-weight="600">Cache-Control&#12504;&#12483;&#12480;&#12540;</text>
      <text x="28" y="18" fill="#94a3b8" font-size="9">no-store, no-cache&#12391;</text>
      <text x="28" y="31" fill="#94a3b8" font-size="9">&#27231;&#23494;&#12506;&#12540;&#12472;&#12398;&#12461;&#12515;&#12483;&#12471;&#12517;&#12434;&#31105;&#27490;</text>
    </g>

    <!-- Layer 2 -->
    <g transform="translate(18, 130)">
      <rect x="0" y="-8" width="18" height="18" rx="4" fill="#22c55e" opacity="0.15"/>
      <text x="9" y="6" text-anchor="middle" fill="#22c55e" font-size="11" font-weight="700">2</text>
      <text x="28" y="2" fill="#f8fafc" font-size="11" font-weight="600">Pragma: no-cache</text>
      <text x="28" y="18" fill="#94a3b8" font-size="9">HTTP/1.0&#20114;&#25563;&#12398;&#12461;&#12515;&#12483;&#12471;&#12517;&#21046;&#24481;&#12290;</text>
      <text x="28" y="31" fill="#94a3b8" font-size="9">Expires: 0&#12392;&#20341;&#29992;&#12377;&#12427;</text>
    </g>

    <!-- Layer 3 -->
    <g transform="translate(18, 196)">
      <rect x="0" y="-8" width="18" height="18" rx="4" fill="#22c55e" opacity="0.15"/>
      <text x="9" y="6" text-anchor="middle" fill="#22c55e" font-size="11" font-weight="700">3</text>
      <text x="28" y="2" fill="#f8fafc" font-size="11" font-weight="600">&#33258;&#21205;&#12525;&#12464;&#12450;&#12454;&#12488;</text>
      <text x="28" y="18" fill="#94a3b8" font-size="9">&#12475;&#12483;&#12471;&#12519;&#12531;&#12479;&#12452;&#12512;&#12450;&#12454;&#12488;&#12391;</text>
      <text x="28" y="31" fill="#94a3b8" font-size="9">&#38263;&#26178;&#38291;&#25918;&#32622;&#12434;&#38450;&#27490;</text>
    </g>

    <!-- Layer 4 -->
    <g transform="translate(18, 262)">
      <rect x="0" y="-8" width="18" height="18" rx="4" fill="#22c55e" opacity="0.15"/>
      <text x="9" y="6" text-anchor="middle" fill="#22c55e" font-size="11" font-weight="700">4</text>
      <text x="28" y="2" fill="#f8fafc" font-size="11" font-weight="600">Secure&#23646;&#24615;Cookie</text>
      <text x="28" y="18" fill="#94a3b8" font-size="9">Secure + HttpOnly&#23646;&#24615;&#12391;</text>
      <text x="28" y="31" fill="#94a3b8" font-size="9">Cookie&#12398;&#19981;&#27491;&#21033;&#29992;&#12434;&#38450;&#27490;</text>
    </g>

    <line x1="14" y1="306" x2="281" y2="306" stroke="#22c55e" stroke-width="0.5" opacity="0.5"/>

    <!-- Summary -->
    <g transform="translate(18, 322)">
      <text x="130" y="4" text-anchor="middle" fill="#4ade80" font-size="10" font-weight="600">&#128274; &#22810;&#23652;&#38450;&#24481; (Defense in Depth)</text>
      <text x="130" y="22" text-anchor="middle" fill="#94a3b8" font-size="9">&#12461;&#12515;&#12483;&#12471;&#12517;&#21046;&#24481; + &#12475;&#12483;&#12471;&#12519;&#12531;&#31649;&#29702;</text>
      <text x="130" y="38" text-anchor="middle" fill="#94a3b8" font-size="9">+ Cookie&#20445;&#35703;&#12398;&#22810;&#37325;&#38450;&#24481;</text>
    </g>
  </g>

  <!-- ====================================================== -->
  <!--  No-cache response tunnel visual                        -->
  <!-- ====================================================== -->
  <g transform="translate(248, 200)">
    <rect x="-120" y="-10" width="240" height="20" rx="10" fill="#22c55e" opacity="0.06" stroke="#22c55e" stroke-width="0.8" stroke-dasharray="4,2"/>
    <text x="0" y="4" text-anchor="middle" fill="#22c55e" font-size="8" font-weight="600" opacity="0.6">&#9473;&#9473;&#9473; &#12461;&#12515;&#12483;&#12471;&#12517;&#28961;&#21177;&#21270;&#28168;&#12415;&#36890;&#20449; &#9473;&#9473;&#9473;</text>
  </g>

  <!-- ===== Legend ===== -->
  <g transform="translate(30, 735)">
    <rect x="0" y="0" width="420" height="36" rx="6" fill="#0f172a" stroke="#334155" stroke-width="1"/>
    <line x1="14" y1="18" x2="44" y2="18" stroke="#ef4444" stroke-width="2" stroke-dasharray="4,3" opacity="0.3"/>
    <text x="52" y="22" fill="#fca5a5" font-size="9" opacity="0.6">&#36974;&#26029;&#12373;&#12428;&#12383;&#25915;&#25731;</text>
    <g transform="translate(172, 18)">
      <circle cx="0" cy="0" r="8" fill="#052e16" stroke="#22c55e" stroke-width="1.2"/>
      <line x1="-3" y1="-3" x2="3" y2="3" stroke="#22c55e" stroke-width="1.5" stroke-linecap="round"/>
      <line x1="3" y1="-3" x2="-3" y2="3" stroke="#22c55e" stroke-width="1.5" stroke-linecap="round"/>
    </g>
    <text x="188" y="22" fill="#86efac" font-size="9">&#12502;&#12525;&#12483;&#12463;&#12509;&#12452;&#12531;&#12488;</text>
    <rect x="282" y="10" width="16" height="16" rx="3" fill="#052e16" stroke="#22c55e" stroke-width="1"/>
    <text x="304" y="22" fill="#86efac" font-size="9">&#38450;&#24481;&#27231;&#27083;</text>
    <line x1="358" y1="18" x2="388" y2="18" stroke="#22c55e" stroke-width="2" filter="url(#glowGreen)"/>
    <text x="396" y="22" fill="#86efac" font-size="9">&#20445;&#35703;&#12373;&#12428;&#12383;&#36890;&#20449;</text>
  </g>

</svg>