<svg xmlns="http://www.w3.org/2000/svg" viewBox="0 0 1100 750" font-family="'Segoe UI', 'Helvetica Neue', Arial, sans-serif">
  <defs>
    <linearGradient id="bgGrad" x1="0" y1="0" x2="0" y2="1">
      <stop offset="0%" stop-color="#0f172a"/>
      <stop offset="100%" stop-color="#1e293b"/>
    </linearGradient>
    <filter id="glow">
      <feGaussianBlur stdDeviation="2.5" result="blur"/>
      <feMerge><feMergeNode in="blur"/><feMergeNode in="SourceGraphic"/></feMerge>
    </filter>
    <filter id="shadow">
      <feDropShadow dx="0" dy="2" stdDeviation="4" flood-color="#000" flood-opacity="0.35"/>
    </filter>
    <marker id="arrowRed" markerWidth="10" markerHeight="7" refX="9" refY="3.5" orient="auto">
      <polygon points="0 0, 10 3.5, 0 7" fill="#ef4444"/>
    </marker>
    <marker id="arrowBlue" markerWidth="10" markerHeight="7" refX="9" refY="3.5" orient="auto">
      <polygon points="0 0, 10 3.5, 0 7" fill="#3b82f6"/>
    </marker>
    <marker id="arrowPurple" markerWidth="10" markerHeight="7" refX="9" refY="3.5" orient="auto">
      <polygon points="0 0, 10 3.5, 0 7" fill="#a855f7"/>
    </marker>
  </defs>

  <!-- Background -->
  <rect width="1100" height="750" fill="url(#bgGrad)" rx="12"/>

  <!-- ===== Title ===== -->
  <text x="380" y="38" text-anchor="middle" fill="#f8fafc" font-size="22" font-weight="700">Cache Control Misconfiguration Attack</text>
  <text x="380" y="58" text-anchor="middle" fill="#94a3b8" font-size="12">&#12461;&#12515;&#12483;&#12471;&#12517;&#21046;&#24481;&#12398;&#19981;&#20633; &#8212; &#25915;&#25731;&#12398;&#27969;&#12428;</text>
  <rect x="265" y="66" width="230" height="20" rx="10" fill="#ef4444" opacity="0.15"/>
  <text x="380" y="80" text-anchor="middle" fill="#fca5a5" font-size="10" font-weight="600">OWASP A05 &#8212; Security Misconfiguration</text>

  <!-- ====================================================== -->
  <!--  ACTORS                                                 -->
  <!-- ====================================================== -->

  <!-- Victim (Left) -->
  <g transform="translate(115, 250)" filter="url(#shadow)">
    <rect x="-56" y="-30" width="112" height="125" rx="12" fill="#1e1b2e" stroke="#a855f7" stroke-width="1.5"/>
    <g transform="translate(0, 10)">
      <circle cx="0" cy="-9" r="13" fill="none" stroke="#a855f7" stroke-width="1.8"/>
      <circle cx="-4" cy="-11" r="1.5" fill="#a855f7"/>
      <circle cx="4" cy="-11" r="1.5" fill="#a855f7"/>
      <path d="M-4,-4 Q0,1 4,-4" fill="none" stroke="#a855f7" stroke-width="1.3" stroke-linecap="round"/>
      <path d="M-17,36 Q-17,14 0,10 Q17,14 17,36" fill="none" stroke="#a855f7" stroke-width="2"/>
      <line x1="-17" y1="36" x2="17" y2="36" stroke="#a855f7" stroke-width="2" stroke-linecap="round"/>
    </g>
    <text x="0" y="72" text-anchor="middle" fill="#d8b4fe" font-size="13" font-weight="700">&#34987;&#23475;&#32773;</text>
    <text x="0" y="86" text-anchor="middle" fill="#a855f7" font-size="9.5" opacity="0.7">Victim / &#12525;&#12464;&#12452;&#12531;&#20013;</text>
  </g>

  <!-- Web Server (Center) -->
  <g transform="translate(380, 250)" filter="url(#shadow)">
    <rect x="-56" y="-30" width="112" height="125" rx="12" fill="#1e1b2e" stroke="#3b82f6" stroke-width="1.5"/>
    <g transform="translate(0, 14)">
      <rect x="-20" y="-18" width="40" height="12" rx="3" fill="none" stroke="#3b82f6" stroke-width="1.5"/>
      <circle cx="-12" cy="-12" r="2" fill="#3b82f6"/><circle cx="-5" cy="-12" r="2" fill="#3b82f6"/>
      <rect x="-20" y="-2" width="40" height="12" rx="3" fill="none" stroke="#3b82f6" stroke-width="1.5"/>
      <circle cx="-12" cy="4" r="2" fill="#3b82f6"/><circle cx="-5" cy="4" r="2" fill="#3b82f6"/>
      <rect x="-20" y="14" width="40" height="12" rx="3" fill="none" stroke="#3b82f6" stroke-width="1.5"/>
      <circle cx="-12" cy="20" r="2" fill="#3b82f6"/><circle cx="-5" cy="20" r="2" fill="#3b82f6"/>
    </g>
    <text x="0" y="72" text-anchor="middle" fill="#93c5fd" font-size="13" font-weight="700">Web&#12469;&#12540;&#12496;&#12540;</text>
    <text x="0" y="86" text-anchor="middle" fill="#3b82f6" font-size="9.5" opacity="0.7">No Cache-Control</text>
  </g>

  <!-- Attacker (Right) -->
  <g transform="translate(645, 250)" filter="url(#shadow)">
    <rect x="-56" y="-30" width="112" height="125" rx="12" fill="#1e1b2e" stroke="#ef4444" stroke-width="1.5"/>
    <g transform="translate(0, 10)">
      <path d="M-13,-17 Q0,-28 13,-17 L13,-4 Q0,2 -13,-4 Z" fill="none" stroke="#ef4444" stroke-width="1.8"/>
      <circle cx="-4" cy="-9" r="1.8" fill="#ef4444"/>
      <circle cx="4" cy="-9" r="1.8" fill="#ef4444"/>
      <path d="M-17,36 Q-17,14 0,10 Q17,14 17,36" fill="none" stroke="#ef4444" stroke-width="2"/>
      <line x1="-17" y1="36" x2="17" y2="36" stroke="#ef4444" stroke-width="2" stroke-linecap="round"/>
    </g>
    <text x="0" y="72" text-anchor="middle" fill="#fca5a5" font-size="13" font-weight="700">&#25915;&#25731;&#32773;</text>
    <text x="0" y="86" text-anchor="middle" fill="#ef4444" font-size="9.5" opacity="0.7">&#20849;&#26377;PC&#21033;&#29992;&#32773;</text>
  </g>

  <!-- ====================================================== -->
  <!--  ARROWS                                                 -->
  <!-- ====================================================== -->

  <!-- Step 1: Victim → Server (access sensitive page) -->
  <path d="M 170 220 L 324 220" fill="none" stroke="#a855f7" stroke-width="2.2" stroke-dasharray="8,4" marker-end="url(#arrowPurple)" filter="url(#glow)"/>
  <circle cx="248" cy="198" r="16" fill="#a855f7"/>
  <text x="248" y="203" text-anchor="middle" fill="#fff" font-size="13" font-weight="700">1</text>

  <!-- Step 2: Server → Victim (response WITHOUT Cache-Control) -->
  <path d="M 324 260 L 170 260" fill="none" stroke="#3b82f6" stroke-width="2.2" stroke-dasharray="8,4" marker-end="url(#arrowBlue)"/>
  <circle cx="248" cy="278" r="16" fill="#3b82f6"/>
  <text x="248" y="283" text-anchor="middle" fill="#fff" font-size="13" font-weight="700">2</text>

  <!-- Step 3: Browser caches (victim downward arrow) -->
  <path d="M 115 345 L 115 415" fill="none" stroke="#a855f7" stroke-width="2.2" stroke-dasharray="6,3" marker-end="url(#arrowPurple)"/>
  <circle cx="139" cy="380" r="16" fill="#a855f7"/>
  <text x="139" y="385" text-anchor="middle" fill="#fff" font-size="13" font-weight="700">3</text>

  <!-- Step 4: Victim leaves (upper curve from victim to right) -->
  <path d="M 170 310 Q 280 380 390 310" fill="none" stroke="#a855f7" stroke-width="2.2" stroke-dasharray="6,3" opacity="0.5" marker-end="url(#arrowPurple)"/>
  <circle cx="280" cy="360" r="16" fill="#a855f7" opacity="0.7"/>
  <text x="280" y="365" text-anchor="middle" fill="#fff" font-size="13" font-weight="700">4</text>

  <!-- Step 5: Attacker accesses cached data (curve from attacker down to browser cache) -->
  <path d="M 600 310 C 500 420, 300 460, 195 460" fill="none" stroke="#ef4444" stroke-width="2.2" stroke-dasharray="8,4" marker-end="url(#arrowRed)" filter="url(#glow)"/>
  <circle cx="420" cy="430" r="16" fill="#ef4444"/>
  <text x="420" y="435" text-anchor="middle" fill="#fff" font-size="13" font-weight="700">5</text>

  <!-- ====================================================== -->
  <!--  Browser cache box                                      -->
  <!-- ====================================================== -->
  <g transform="translate(115, 468)" filter="url(#shadow)">
    <rect x="-80" y="-28" width="160" height="84" rx="8" fill="#1e1b2e" stroke="#ef4444" stroke-width="1.2" stroke-dasharray="4,2"/>
    <rect x="-70" y="-20" width="140" height="13" rx="3" fill="#0f172a"/>
    <circle cx="-60" cy="-14" r="2.5" fill="#ef4444"/>
    <circle cx="-52" cy="-14" r="2.5" fill="#f59e0b"/>
    <circle cx="-44" cy="-14" r="2.5" fill="#22c55e"/>
    <text x="0" y="6" text-anchor="middle" fill="#fca5a5" font-size="10" font-weight="600">&#12502;&#12521;&#12454;&#12470;&#12461;&#12515;&#12483;&#12471;&#12517;</text>
    <text x="0" y="22" text-anchor="middle" fill="#94a3b8" font-size="8.5" font-family="'Fira Code', monospace">/account/profile (cached)</text>
    <text x="0" y="36" text-anchor="middle" fill="#ef4444" font-size="8.5">&#27231;&#23494;&#12487;&#12540;&#12479;&#12364;&#24179;&#25991;&#12391;&#20445;&#23384;</text>
    <text x="0" y="48" text-anchor="middle" fill="#94a3b8" font-size="8">&#20491;&#20154;&#24773;&#22577;&#12539;&#12475;&#12483;&#12471;&#12519;&#12531;&#12487;&#12540;&#12479;</text>
  </g>

  <!-- ===== Vulnerability callout ===== -->
  <g transform="translate(380, 420)" filter="url(#shadow)">
    <rect x="-115" y="-18" width="230" height="56" rx="8" fill="#451a03" stroke="#f97316" stroke-width="1"/>
    <text x="0" y="-1" text-anchor="middle" fill="#fdba74" font-size="11" font-weight="700">&#9888; Cache-Control&#12504;&#12483;&#12480;&#12540;&#26410;&#35373;&#23450;</text>
    <text x="0" y="16" text-anchor="middle" fill="#fb923c" font-size="9" font-family="'Fira Code', monospace">// Cache-Control&#12504;&#12483;&#12480;&#12540;&#26410;&#35373;&#23450;</text>
    <text x="0" y="30" text-anchor="middle" fill="#fed7aa" font-size="8.5">&#27231;&#23494;&#12506;&#12540;&#12472;&#12364;&#12502;&#12521;&#12454;&#12470;&#12395;&#12461;&#12515;&#12483;&#12471;&#12517;&#12373;&#12428;&#12427;</text>
  </g>

  <!-- ===== HTTP response code ===== -->
  <g transform="translate(380, 565)">
    <rect x="-210" y="-14" width="420" height="28" rx="5" fill="#0f172a" stroke="#334155" stroke-width="1"/>
    <text x="0" y="4" text-anchor="middle" fill="#94a3b8" font-size="9.5" font-family="'Fira Code', monospace">
      <tspan fill="#3b82f6">HTTP/1.1 200 OK</tspan><tspan fill="#fca5a5"> &#8592; Cache-Control&#12504;&#12483;&#12480;&#12540;&#12394;&#12375;</tspan><tspan fill="#ef4444"> &#8594; &#12461;&#12515;&#12483;&#12471;&#12517;&#12373;&#12428;&#12427;</tspan>
    </text>
  </g>

  <!-- ====================================================== -->
  <!--  STEP LIST (right sidebar)                              -->
  <!-- ====================================================== -->
  <g transform="translate(775, 100)">
    <rect x="0" y="0" width="305" height="360" rx="10" fill="#0f172a" stroke="#334155" stroke-width="1"/>
    <text x="152" y="28" text-anchor="middle" fill="#e2e8f0" font-size="14" font-weight="700">&#25915;&#25731;&#12473;&#12486;&#12483;&#12503;&#35443;&#32048;</text>
    <line x1="16" y1="40" x2="289" y2="40" stroke="#334155" stroke-width="1"/>

    <!-- Step 1 -->
    <circle cx="34" cy="68" r="13" fill="#a855f7"/>
    <text x="34" y="73" text-anchor="middle" fill="#fff" font-size="11" font-weight="700">1</text>
    <text x="56" y="64" fill="#f8fafc" font-size="11.5" font-weight="600">&#27231;&#23494;&#12506;&#12540;&#12472;&#12395;&#12450;&#12463;&#12475;&#12473;</text>
    <text x="56" y="80" fill="#94a3b8" font-size="9.5">&#34987;&#23475;&#32773;&#12364;&#12525;&#12464;&#12452;&#12531;&#24460;&#12289;</text>
    <text x="56" y="93" fill="#94a3b8" font-size="9.5">&#12450;&#12459;&#12454;&#12531;&#12488;&#24773;&#22577;&#31561;&#12434;&#34920;&#31034;</text>

    <!-- Step 2 -->
    <circle cx="34" cy="124" r="13" fill="#3b82f6"/>
    <text x="34" y="129" text-anchor="middle" fill="#fff" font-size="11" font-weight="700">2</text>
    <text x="56" y="120" fill="#f8fafc" font-size="11.5" font-weight="600">Cache-Control&#12394;&#12375;&#12391;&#24540;&#31572;</text>
    <text x="56" y="136" fill="#94a3b8" font-size="9.5">&#12469;&#12540;&#12496;&#12540;&#12364;&#12461;&#12515;&#12483;&#12471;&#12517;&#21046;&#24481;</text>
    <text x="56" y="149" fill="#94a3b8" font-size="9.5">&#12504;&#12483;&#12480;&#12540;&#12394;&#12375;&#12391;&#12524;&#12473;&#12509;&#12531;&#12473;&#36820;&#21364;</text>

    <!-- Step 3 -->
    <circle cx="34" cy="180" r="13" fill="#a855f7"/>
    <text x="34" y="185" text-anchor="middle" fill="#fff" font-size="11" font-weight="700">3</text>
    <text x="56" y="176" fill="#f8fafc" font-size="11.5" font-weight="600">&#12502;&#12521;&#12454;&#12470;&#12364;&#12461;&#12515;&#12483;&#12471;&#12517;&#20445;&#23384;</text>
    <text x="56" y="192" fill="#94a3b8" font-size="9.5">&#27231;&#23494;&#12487;&#12540;&#12479;&#12364;&#12502;&#12521;&#12454;&#12470;&#12398;</text>
    <text x="56" y="205" fill="#94a3b8" font-size="9.5">&#12461;&#12515;&#12483;&#12471;&#12517;&#12395;&#24179;&#25991;&#12391;&#20445;&#23384;&#12373;&#12428;&#12427;</text>

    <!-- Step 4 -->
    <circle cx="34" cy="236" r="13" fill="#a855f7" opacity="0.7"/>
    <text x="34" y="241" text-anchor="middle" fill="#fff" font-size="11" font-weight="700">4</text>
    <text x="56" y="232" fill="#f8fafc" font-size="11.5" font-weight="600">&#34987;&#23475;&#32773;&#12364;&#38626;&#24109;/&#12525;&#12464;&#12450;&#12454;&#12488;</text>
    <text x="56" y="248" fill="#94a3b8" font-size="9.5">&#34987;&#23475;&#32773;&#12364;PC&#12434;&#38626;&#12428;&#12427;&#12364;</text>
    <text x="56" y="261" fill="#94a3b8" font-size="9.5">&#12461;&#12515;&#12483;&#12471;&#12517;&#12399;&#12502;&#12521;&#12454;&#12470;&#12395;&#27531;&#12427;</text>

    <!-- Step 5 -->
    <circle cx="34" cy="292" r="13" fill="#ef4444"/>
    <text x="34" y="297" text-anchor="middle" fill="#fff" font-size="11" font-weight="700">5</text>
    <text x="56" y="288" fill="#f8fafc" font-size="11.5" font-weight="600">&#12461;&#12515;&#12483;&#12471;&#12517;&#12363;&#12425;&#27231;&#23494;&#12487;&#12540;&#12479;&#21462;&#24471;</text>
    <text x="56" y="304" fill="#94a3b8" font-size="9.5">&#25915;&#25731;&#32773;&#12364;&#25147;&#12427;&#12508;&#12479;&#12531;&#12420;</text>
    <text x="56" y="317" fill="#94a3b8" font-size="9.5">&#12461;&#12515;&#12483;&#12471;&#12517;&#12434;&#38322;&#35239;&#12375;&#12390;&#24773;&#22577;&#31397;&#21462;</text>
    <text x="56" y="343" fill="#64748b" font-size="8.5">&#8251; &#20849;&#26377;PC&#12391;&#12398;&#25915;&#25731;&#12395;&#29305;&#12395;&#26377;&#21177;</text>
  </g>

  <!-- ====================================================== -->
  <!--  ATTACK TECHNIQUE CARDS (bottom)                        -->
  <!-- ====================================================== -->
  <line x1="30" y1="630" x2="1070" y2="630" stroke="#334155" stroke-width="1"/>
  <text x="550" y="655" text-anchor="middle" fill="#fca5a5" font-size="14" font-weight="700">&#128293; &#20351;&#29992;&#12373;&#12428;&#12427;&#25915;&#25731;&#12486;&#12463;&#12491;&#12483;&#12463;</text>

  <!-- Card: Browser Cache Browsing -->
  <g transform="translate(165, 668)" filter="url(#shadow)">
    <rect x="-120" y="0" width="240" height="38" rx="8" fill="#1e1b2e" stroke="#ef4444" stroke-width="1"/>
    <rect x="-108" y="6" width="28" height="26" rx="5" fill="#ef4444" opacity="0.1"/>
    <g transform="translate(-94, 19)">
      <circle cx="0" cy="-3" r="6" fill="none" stroke="#ef4444" stroke-width="1.2"/>
      <path d="M4,1 L8,5" stroke="#ef4444" stroke-width="1.5" stroke-linecap="round"/>
    </g>
    <text x="10" y="16" text-anchor="middle" fill="#f8fafc" font-size="11" font-weight="600">&#12502;&#12521;&#12454;&#12470;&#12461;&#12515;&#12483;&#12471;&#12517;&#38322;&#35239;</text>
    <text x="10" y="30" text-anchor="middle" fill="#94a3b8" font-size="8.5">&#12461;&#12515;&#12483;&#12471;&#12517;&#12501;&#12449;&#12452;&#12523;&#12398;&#30452;&#25509;&#38322;&#35239;</text>
  </g>

  <!-- Card: Back Button Attack -->
  <g transform="translate(465, 668)" filter="url(#shadow)">
    <rect x="-120" y="0" width="240" height="38" rx="8" fill="#1e1b2e" stroke="#ef4444" stroke-width="1"/>
    <rect x="-108" y="6" width="28" height="26" rx="5" fill="#ef4444" opacity="0.1"/>
    <g transform="translate(-94, 19)">
      <path d="M6,-4 L-4,0 L6,4" fill="none" stroke="#ef4444" stroke-width="1.5" stroke-linecap="round" stroke-linejoin="round"/>
      <line x1="-4" y1="0" x2="8" y2="0" stroke="#ef4444" stroke-width="1.5" stroke-linecap="round"/>
    </g>
    <text x="10" y="16" text-anchor="middle" fill="#f8fafc" font-size="11" font-weight="600">&#25147;&#12427;&#12508;&#12479;&#12531;&#25915;&#25731;</text>
    <text x="10" y="30" text-anchor="middle" fill="#94a3b8" font-size="8.5">&#12502;&#12521;&#12454;&#12470;&#23653;&#27508;&#12391;&#12506;&#12540;&#12472;&#12434;&#24489;&#20803;</text>
  </g>

  <!-- Card: Proxy Cache Exploit -->
  <g transform="translate(765, 668)" filter="url(#shadow)">
    <rect x="-120" y="0" width="240" height="38" rx="8" fill="#1e1b2e" stroke="#ef4444" stroke-width="1"/>
    <rect x="-108" y="6" width="28" height="26" rx="5" fill="#ef4444" opacity="0.1"/>
    <g transform="translate(-94, 19)">
      <rect x="-7" y="-5" width="14" height="10" rx="2" fill="none" stroke="#ef4444" stroke-width="1.2"/>
      <line x1="-4" y1="-1" x2="4" y2="-1" stroke="#ef4444" stroke-width="0.8"/>
      <line x1="-4" y1="2" x2="2" y2="2" stroke="#ef4444" stroke-width="0.8"/>
    </g>
    <text x="10" y="16" text-anchor="middle" fill="#f8fafc" font-size="11" font-weight="600">&#12503;&#12525;&#12461;&#12471;&#12461;&#12515;&#12483;&#12471;&#12517;&#24746;&#29992;</text>
    <text x="10" y="30" text-anchor="middle" fill="#94a3b8" font-size="8.5">&#20849;&#26377;&#12503;&#12525;&#12461;&#12471;&#12398;&#12461;&#12515;&#12483;&#12471;&#12517;&#12434;&#24746;&#29992;</text>
  </g>

  <!-- ===== Legend ===== -->
  <g transform="translate(775, 490)">
    <rect x="0" y="0" width="305" height="86" rx="6" fill="#0f172a" stroke="#334155" stroke-width="1"/>
    <text x="14" y="18" fill="#94a3b8" font-size="10" font-weight="600">&#20961;&#20363;</text>
    <line x1="14" y1="34" x2="44" y2="34" stroke="#ef4444" stroke-width="2" stroke-dasharray="6,3"/>
    <text x="52" y="38" fill="#fca5a5" font-size="9.5">&#25915;&#25731;&#32773;&#12398;&#36890;&#20449;</text>
    <line x1="152" y1="34" x2="182" y2="34" stroke="#3b82f6" stroke-width="2"/>
    <text x="190" y="38" fill="#93c5fd" font-size="9.5">&#12469;&#12540;&#12496;&#12540;&#24540;&#31572;</text>
    <line x1="14" y1="54" x2="44" y2="54" stroke="#a855f7" stroke-width="2" stroke-dasharray="6,3"/>
    <text x="52" y="58" fill="#d8b4fe" font-size="9.5">&#34987;&#23475;&#32773;&#12398;&#36890;&#20449;</text>
    <rect x="152" y="48" width="12" height="12" rx="2" fill="#451a03" stroke="#f97316" stroke-width="0.8"/>
    <text x="170" y="58" fill="#fdba74" font-size="9.5">&#33030;&#24369;&#24615;&#12509;&#12452;&#12531;&#12488;</text>
    <line x1="14" y1="74" x2="44" y2="74" stroke="#ef4444" stroke-width="2" stroke-dasharray="8,4"/>
    <text x="52" y="78" fill="#fca5a5" font-size="9.5">&#12461;&#12515;&#12483;&#12471;&#12517;&#12363;&#12425;&#12398;&#12487;&#12540;&#12479;&#21462;&#24471;</text>
  </g>

</svg>