<svg xmlns="http://www.w3.org/2000/svg" viewBox="0 0 1100 750" font-family="'Segoe UI', 'Helvetica Neue', Arial, sans-serif">
  <defs>
    <linearGradient id="bgGrad" x1="0" y1="0" x2="0" y2="1">
      <stop offset="0%" stop-color="#0f172a"/>
      <stop offset="100%" stop-color="#1e293b"/>
    </linearGradient>
    <filter id="glow">
      <feGaussianBlur stdDeviation="2.5" result="blur"/>
      <feMerge><feMergeNode in="blur"/><feMergeNode in="SourceGraphic"/></feMerge>
    </filter>
    <filter id="shadow">
      <feDropShadow dx="0" dy="2" stdDeviation="4" flood-color="#000" flood-opacity="0.35"/>
    </filter>
    <marker id="arrowRed" markerWidth="10" markerHeight="7" refX="9" refY="3.5" orient="auto">
      <polygon points="0 0, 10 3.5, 0 7" fill="#ef4444"/>
    </marker>
    <marker id="arrowBlue" markerWidth="10" markerHeight="7" refX="9" refY="3.5" orient="auto">
      <polygon points="0 0, 10 3.5, 0 7" fill="#3b82f6"/>
    </marker>
    <marker id="arrowOrange" markerWidth="10" markerHeight="7" refX="9" refY="3.5" orient="auto">
      <polygon points="0 0, 10 3.5, 0 7" fill="#f97316"/>
    </marker>
  </defs>

  <!-- Background -->
  <rect width="1100" height="750" fill="url(#bgGrad)" rx="12"/>

  <!-- ===== Title ===== -->
  <text x="380" y="38" text-anchor="middle" fill="#f8fafc" font-size="22" font-weight="700">Error Message Exposure Attack Flow</text>
  <text x="380" y="58" text-anchor="middle" fill="#94a3b8" font-size="12">詳細エラーメッセージ露出 — 攻撃の流れ</text>
  <rect x="280" y="66" width="200" height="20" rx="10" fill="#ef4444" opacity="0.15"/>
  <text x="380" y="80" text-anchor="middle" fill="#fca5a5" font-size="10" font-weight="600">OWASP — Security Misconfiguration</text>

  <!-- ====================================================== -->
  <!--  ACTORS                                                 -->
  <!-- ====================================================== -->

  <!-- Attacker -->
  <g transform="translate(115, 250)" filter="url(#shadow)">
    <rect x="-56" y="-30" width="112" height="125" rx="12" fill="#1e1b2e" stroke="#ef4444" stroke-width="1.5"/>
    <g transform="translate(0, 10)">
      <path d="M-13,-17 Q0,-28 13,-17 L13,-4 Q0,2 -13,-4 Z" fill="none" stroke="#ef4444" stroke-width="1.8"/>
      <circle cx="-4" cy="-9" r="1.8" fill="#ef4444"/>
      <circle cx="4" cy="-9" r="1.8" fill="#ef4444"/>
      <path d="M-17,36 Q-17,14 0,10 Q17,14 17,36" fill="none" stroke="#ef4444" stroke-width="2"/>
      <line x1="-17" y1="36" x2="17" y2="36" stroke="#ef4444" stroke-width="2" stroke-linecap="round"/>
    </g>
    <text x="0" y="72" text-anchor="middle" fill="#fca5a5" font-size="13" font-weight="700">攻撃者</text>
    <text x="0" y="86" text-anchor="middle" fill="#ef4444" font-size="9.5" opacity="0.7">Attacker</text>
  </g>

  <!-- Web Server -->
  <g transform="translate(380, 250)" filter="url(#shadow)">
    <rect x="-56" y="-30" width="112" height="125" rx="12" fill="#1e1b2e" stroke="#3b82f6" stroke-width="1.5"/>
    <g transform="translate(0, 14)">
      <rect x="-20" y="-18" width="40" height="12" rx="3" fill="none" stroke="#3b82f6" stroke-width="1.5"/>
      <circle cx="-12" cy="-12" r="2" fill="#3b82f6"/><circle cx="-5" cy="-12" r="2" fill="#3b82f6"/>
      <rect x="-20" y="-2" width="40" height="12" rx="3" fill="none" stroke="#3b82f6" stroke-width="1.5"/>
      <circle cx="-12" cy="4" r="2" fill="#3b82f6"/><circle cx="-5" cy="4" r="2" fill="#3b82f6"/>
      <rect x="-20" y="14" width="40" height="12" rx="3" fill="none" stroke="#3b82f6" stroke-width="1.5"/>
      <circle cx="-12" cy="20" r="2" fill="#3b82f6"/><circle cx="-5" cy="20" r="2" fill="#3b82f6"/>
    </g>
    <text x="0" y="72" text-anchor="middle" fill="#93c5fd" font-size="13" font-weight="700">Webサーバー</text>
    <text x="0" y="86" text-anchor="middle" fill="#3b82f6" font-size="9.5" opacity="0.7">Vulnerable App</text>
  </g>

  <!-- Database -->
  <g transform="translate(645, 250)" filter="url(#shadow)">
    <rect x="-56" y="-30" width="112" height="125" rx="12" fill="#1e1b2e" stroke="#f59e0b" stroke-width="1.5"/>
    <g transform="translate(0, 10)">
      <ellipse cx="0" cy="-14" rx="20" ry="8" fill="none" stroke="#f59e0b" stroke-width="1.5"/>
      <path d="M-20,-14 L-20,14" fill="none" stroke="#f59e0b" stroke-width="1.5"/>
      <path d="M20,-14 L20,14" fill="none" stroke="#f59e0b" stroke-width="1.5"/>
      <ellipse cx="0" cy="14" rx="20" ry="8" fill="none" stroke="#f59e0b" stroke-width="1.5"/>
      <path d="M-20,0 Q0,8 20,0" fill="none" stroke="#f59e0b" stroke-width="0.8" opacity="0.5"/>
    </g>
    <text x="0" y="72" text-anchor="middle" fill="#fcd34d" font-size="13" font-weight="700">データベース</text>
    <text x="0" y="86" text-anchor="middle" fill="#f59e0b" font-size="9.5" opacity="0.7">PostgreSQL</text>
  </g>

  <!-- ====================================================== -->
  <!--  ARROWS                                                 -->
  <!-- ====================================================== -->

  <!-- Step 1: Attacker → Server (malformed request, Y=240) -->
  <path d="M 171 240 L 322 240" fill="none" stroke="#ef4444" stroke-width="2.2" stroke-dasharray="8,4" marker-end="url(#arrowRed)" filter="url(#glow)"/>
  <circle cx="247" cy="218" r="16" fill="#ef4444"/>
  <text x="247" y="223" text-anchor="middle" fill="#fff" font-size="13" font-weight="700">1</text>

  <!-- Step 2: Server → Database (bad query, Y=240) -->
  <path d="M 438 240 L 589 240" fill="none" stroke="#3b82f6" stroke-width="2.2" marker-end="url(#arrowBlue)"/>
  <circle cx="514" cy="218" r="16" fill="#3b82f6"/>
  <text x="514" y="223" text-anchor="middle" fill="#fff" font-size="13" font-weight="700">2</text>

  <!-- Step 3: Database → Server (error details, Y=282) -->
  <path d="M 589 282 L 438 282" fill="none" stroke="#f97316" stroke-width="2.2" marker-end="url(#arrowOrange)"/>
  <circle cx="514" cy="304" r="16" fill="#f97316"/>
  <text x="514" y="309" text-anchor="middle" fill="#fff" font-size="13" font-weight="700">3</text>

  <!-- Step 4: Server → Attacker (leaks error, Y=282) -->
  <path d="M 322 282 L 171 282" fill="none" stroke="#ef4444" stroke-width="2.2" stroke-dasharray="8,4" marker-end="url(#arrowRed)" filter="url(#glow)"/>
  <circle cx="247" cy="304" r="16" fill="#ef4444"/>
  <text x="247" y="309" text-anchor="middle" fill="#fff" font-size="13" font-weight="700">4</text>

  <!-- ===== Vulnerability callout (below server) ===== -->
  <g transform="translate(380, 420)" filter="url(#shadow)">
    <rect x="-120" y="-18" width="240" height="52" rx="8" fill="#451a03" stroke="#f97316" stroke-width="1"/>
    <text x="0" y="-1" text-anchor="middle" fill="#fdba74" font-size="11" font-weight="700">⚠ エラーフィルタリングなし</text>
    <text x="0" y="16" text-anchor="middle" fill="#fb923c" font-size="9.5" font-family="'Fira Code', monospace">c.json({ error: err.message, stack })</text>
    <text x="0" y="28" text-anchor="middle" fill="#fed7aa" font-size="8.5">エラー詳細をそのままクライアントに返却</text>
  </g>

  <!-- ===== Leaked information box (below vulnerability) ===== -->
  <g transform="translate(380, 505)" filter="url(#shadow)">
    <rect x="-170" y="-22" width="340" height="76" rx="8" fill="#1e1b2e" stroke="#ef4444" stroke-width="1.2" stroke-dasharray="4,2"/>
    <text x="0" y="-6" text-anchor="middle" fill="#fca5a5" font-size="10" font-weight="600">漏洩する情報</text>
    <text x="-150" y="12" fill="#94a3b8" font-size="9" font-family="'Fira Code', monospace">table: <tspan fill="#ef4444">users</tspan>, columns: <tspan fill="#ef4444">id, username, password</tspan></text>
    <text x="-150" y="26" fill="#94a3b8" font-size="9" font-family="'Fira Code', monospace">at <tspan fill="#ef4444">/app/backend/src/labs/error-messages.ts:15</tspan></text>
    <text x="-150" y="40" fill="#94a3b8" font-size="9" font-family="'Fira Code', monospace">driver: <tspan fill="#ef4444">pg@8.11.0</tspan> node: <tspan fill="#ef4444">v20.10.0</tspan></text>
  </g>

  <!-- ===== Request example bar ===== -->
  <g transform="translate(380, 600)">
    <rect x="-195" y="-14" width="390" height="28" rx="5" fill="#0f172a" stroke="#334155" stroke-width="1"/>
    <text x="0" y="4" text-anchor="middle" fill="#94a3b8" font-size="9.5" font-family="'Fira Code', monospace">
      <tspan fill="#64748b">GET </tspan><tspan fill="#93c5fd">/api/labs/error-messages/vulnerable/users/</tspan><tspan fill="#ef4444">abc</tspan>
    </text>
  </g>

  <!-- ====================================================== -->
  <!--  STEP LIST (right sidebar)                              -->
  <!-- ====================================================== -->
  <g transform="translate(775, 100)">
    <rect x="0" y="0" width="305" height="280" rx="10" fill="#0f172a" stroke="#334155" stroke-width="1"/>
    <text x="152" y="28" text-anchor="middle" fill="#e2e8f0" font-size="14" font-weight="700">攻撃ステップ詳細</text>
    <line x1="16" y1="40" x2="289" y2="40" stroke="#334155" stroke-width="1"/>

    <!-- Step 1 -->
    <circle cx="34" cy="68" r="13" fill="#ef4444"/>
    <text x="34" y="73" text-anchor="middle" fill="#fff" font-size="11" font-weight="700">1</text>
    <text x="56" y="64" fill="#f8fafc" font-size="11.5" font-weight="600">不正リクエスト送信</text>
    <text x="56" y="80" fill="#94a3b8" font-size="9.5">不正な型の値やSQLの特殊文字を</text>
    <text x="56" y="93" fill="#94a3b8" font-size="9.5">含むリクエストを送信</text>

    <!-- Step 2 -->
    <circle cx="34" cy="124" r="13" fill="#3b82f6"/>
    <text x="34" y="129" text-anchor="middle" fill="#fff" font-size="11" font-weight="700">2</text>
    <text x="56" y="120" fill="#f8fafc" font-size="11.5" font-weight="600">不正クエリの実行</text>
    <text x="56" y="136" fill="#94a3b8" font-size="9.5">バリデーションなしで入力値が</text>
    <text x="56" y="149" fill="#94a3b8" font-size="9.5">DBクエリに渡される</text>

    <!-- Step 3 -->
    <circle cx="34" cy="180" r="13" fill="#f97316"/>
    <text x="34" y="185" text-anchor="middle" fill="#fff" font-size="11" font-weight="700">3</text>
    <text x="56" y="176" fill="#f8fafc" font-size="11.5" font-weight="600">詳細エラー返却</text>
    <text x="56" y="192" fill="#94a3b8" font-size="9.5">DBがテーブル名・カラム情報を</text>
    <text x="56" y="205" fill="#94a3b8" font-size="9.5">含むエラーメッセージを返す</text>

    <!-- Step 4 -->
    <circle cx="34" cy="236" r="13" fill="#ef4444"/>
    <text x="34" y="241" text-anchor="middle" fill="#fff" font-size="11" font-weight="700">4</text>
    <text x="56" y="232" fill="#f8fafc" font-size="11.5" font-weight="600">情報漏洩・偵察完了</text>
    <text x="56" y="248" fill="#94a3b8" font-size="9.5">スタックトレース・ファイルパス・</text>
    <text x="56" y="261" fill="#94a3b8" font-size="9.5">DB構造等が攻撃者の手に渡る</text>
  </g>

  <!-- ====================================================== -->
  <!--  ATTACK TECHNIQUE CARDS (bottom)                        -->
  <!-- ====================================================== -->
  <line x1="30" y1="660" x2="1070" y2="660" stroke="#334155" stroke-width="1"/>
  <text x="550" y="685" text-anchor="middle" fill="#fca5a5" font-size="14" font-weight="700">🔥 使用される攻撃テクニック</text>

  <!-- Card: Error Enumeration -->
  <g transform="translate(165, 698)" filter="url(#shadow)">
    <rect x="-120" y="0" width="240" height="38" rx="8" fill="#1e1b2e" stroke="#ef4444" stroke-width="1"/>
    <rect x="-108" y="6" width="28" height="26" rx="5" fill="#ef4444" opacity="0.1"/>
    <g transform="translate(-94, 19)">
      <circle cx="0" cy="0" r="7" fill="none" stroke="#ef4444" stroke-width="1.2"/>
      <text x="0" y="4" text-anchor="middle" fill="#ef4444" font-size="9" font-weight="700">!</text>
    </g>
    <text x="10" y="16" text-anchor="middle" fill="#f8fafc" font-size="11" font-weight="600">エラー列挙</text>
    <text x="10" y="30" text-anchor="middle" fill="#94a3b8" font-size="8.5">様々な入力でエラーを誘発</text>
  </g>

  <!-- Card: Information Gathering -->
  <g transform="translate(465, 698)" filter="url(#shadow)">
    <rect x="-120" y="0" width="240" height="38" rx="8" fill="#1e1b2e" stroke="#ef4444" stroke-width="1"/>
    <rect x="-108" y="6" width="28" height="26" rx="5" fill="#ef4444" opacity="0.1"/>
    <g transform="translate(-94, 19)">
      <circle cx="0" cy="0" r="8" fill="none" stroke="#ef4444" stroke-width="1.2"/>
      <line x1="5.5" y1="5.5" x2="10" y2="10" stroke="#ef4444" stroke-width="1.5" stroke-linecap="round"/>
    </g>
    <text x="10" y="16" text-anchor="middle" fill="#f8fafc" font-size="11" font-weight="600">情報収集</text>
    <text x="10" y="30" text-anchor="middle" fill="#94a3b8" font-size="8.5">DB構造・パス・バージョン特定</text>
  </g>

  <!-- Card: Secondary Attack Prep -->
  <g transform="translate(765, 698)" filter="url(#shadow)">
    <rect x="-120" y="0" width="240" height="38" rx="8" fill="#1e1b2e" stroke="#ef4444" stroke-width="1"/>
    <rect x="-108" y="6" width="28" height="26" rx="5" fill="#ef4444" opacity="0.1"/>
    <g transform="translate(-94, 19)">
      <line x1="-6" y1="0" x2="6" y2="0" stroke="#ef4444" stroke-width="1.5" stroke-linecap="round"/>
      <line x1="0" y1="-6" x2="0" y2="6" stroke="#ef4444" stroke-width="1.5" stroke-linecap="round"/>
      <circle cx="0" cy="0" r="3" fill="none" stroke="#ef4444" stroke-width="1"/>
    </g>
    <text x="10" y="16" text-anchor="middle" fill="#f8fafc" font-size="11" font-weight="600">二次攻撃の準備</text>
    <text x="10" y="30" text-anchor="middle" fill="#94a3b8" font-size="8.5">SQLi・パストラバーサル等へ展開</text>
  </g>

  <!-- ===== Legend ===== -->
  <g transform="translate(775, 405)">
    <rect x="0" y="0" width="305" height="68" rx="6" fill="#0f172a" stroke="#334155" stroke-width="1"/>
    <text x="14" y="18" fill="#94a3b8" font-size="10" font-weight="600">凡例</text>
    <line x1="14" y1="34" x2="44" y2="34" stroke="#ef4444" stroke-width="2" stroke-dasharray="6,3"/>
    <text x="52" y="38" fill="#fca5a5" font-size="9.5">攻撃通信</text>
    <line x1="152" y1="34" x2="182" y2="34" stroke="#3b82f6" stroke-width="2"/>
    <text x="190" y="38" fill="#93c5fd" font-size="9.5">サーバー通信</text>
    <line x1="14" y1="54" x2="44" y2="54" stroke="#f97316" stroke-width="2"/>
    <text x="52" y="58" fill="#fdba74" font-size="9.5">エラー応答</text>
    <rect x="152" y="48" width="12" height="12" rx="2" fill="#451a03" stroke="#f97316" stroke-width="0.8"/>
    <text x="170" y="58" fill="#fdba74" font-size="9.5">脆弱性ポイント</text>
  </g>

</svg>
