<svg xmlns="http://www.w3.org/2000/svg" viewBox="0 0 1100 780" font-family="'Segoe UI', 'Helvetica Neue', Arial, sans-serif">
  <defs>
    <linearGradient id="bgGrad" x1="0" y1="0" x2="0" y2="1">
      <stop offset="0%" stop-color="#0f172a"/>
      <stop offset="100%" stop-color="#1e293b"/>
    </linearGradient>
    <filter id="shadow">
      <feDropShadow dx="0" dy="2" stdDeviation="4" flood-color="#000" flood-opacity="0.35"/>
    </filter>
    <filter id="glowGreen">
      <feGaussianBlur stdDeviation="3" result="blur"/>
      <feMerge><feMergeNode in="blur"/><feMergeNode in="SourceGraphic"/></feMerge>
    </filter>
    <marker id="arrowRed" markerWidth="10" markerHeight="7" refX="9" refY="3.5" orient="auto">
      <polygon points="0 0, 10 3.5, 0 7" fill="#ef4444"/>
    </marker>
    <marker id="arrowPurple" markerWidth="10" markerHeight="7" refX="9" refY="3.5" orient="auto">
      <polygon points="0 0, 10 3.5, 0 7" fill="#a855f7"/>
    </marker>
  </defs>

  <!-- Background -->
  <rect width="1100" height="780" fill="url(#bgGrad)" rx="12"/>

  <!-- ===== Title ===== -->
  <text x="380" y="38" text-anchor="middle" fill="#f8fafc" font-size="22" font-weight="700">CSRF — Defense Strategy</text>
  <text x="380" y="58" text-anchor="middle" fill="#94a3b8" font-size="12">クロスサイトリクエストフォージェリに対する多層防御</text>
  <rect x="310" y="66" width="140" height="20" rx="10" fill="#22c55e" opacity="0.15"/>
  <text x="380" y="80" text-anchor="middle" fill="#86efac" font-size="10" font-weight="600">Multi-Layer Defense</text>

  <!-- ====================================================== -->
  <!--  ACTORS                                                 -->
  <!-- ====================================================== -->

  <!-- Attacker (dimmed) -->
  <g transform="translate(115, 280)" filter="url(#shadow)">
    <rect x="-56" y="-30" width="112" height="125" rx="12" fill="#1e1b2e" stroke="#ef4444" stroke-width="1.5" opacity="0.45"/>
    <g transform="translate(0, 10)" opacity="0.45">
      <path d="M-13,-17 Q0,-28 13,-17 L13,-4 Q0,2 -13,-4 Z" fill="none" stroke="#ef4444" stroke-width="1.8"/>
      <circle cx="-4" cy="-9" r="1.8" fill="#ef4444"/>
      <circle cx="4" cy="-9" r="1.8" fill="#ef4444"/>
      <path d="M-17,36 Q-17,14 0,10 Q17,14 17,36" fill="none" stroke="#ef4444" stroke-width="2"/>
      <line x1="-17" y1="36" x2="17" y2="36" stroke="#ef4444" stroke-width="2" stroke-linecap="round"/>
    </g>
    <text x="0" y="72" text-anchor="middle" fill="#fca5a5" font-size="13" font-weight="700" opacity="0.5">攻撃者</text>
    <text x="0" y="86" text-anchor="middle" fill="#ef4444" font-size="9.5" opacity="0.35">evil.com</text>
  </g>

  <!-- Victim (protected) -->
  <g transform="translate(380, 280)" filter="url(#shadow)">
    <rect x="-56" y="-30" width="112" height="125" rx="12" fill="#1e1b2e" stroke="#22c55e" stroke-width="1.5"/>
    <g transform="translate(0, 10)">
      <circle cx="0" cy="-9" r="13" fill="none" stroke="#a855f7" stroke-width="1.8"/>
      <circle cx="-4" cy="-11" r="1.5" fill="#a855f7"/>
      <circle cx="4" cy="-11" r="1.5" fill="#a855f7"/>
      <path d="M-4,-4 Q0,1 4,-4" fill="none" stroke="#a855f7" stroke-width="1.3" stroke-linecap="round"/>
      <path d="M-17,36 Q-17,14 0,10 Q17,14 17,36" fill="none" stroke="#a855f7" stroke-width="2"/>
      <line x1="-17" y1="36" x2="17" y2="36" stroke="#a855f7" stroke-width="2" stroke-linecap="round"/>
    </g>
    <g transform="translate(42, -22)">
      <path d="M0,-9 L9,-4 L9,3 Q9,9 0,12 Q-9,9 -9,3 L-9,-4 Z" fill="#22c55e" opacity="0.2" stroke="#22c55e" stroke-width="1.2"/>
      <polyline points="-3,2 -1,5 5,-2" fill="none" stroke="#22c55e" stroke-width="1.5" stroke-linecap="round"/>
    </g>
    <text x="0" y="72" text-anchor="middle" fill="#86efac" font-size="13" font-weight="700">被害者</text>
    <text x="0" y="86" text-anchor="middle" fill="#22c55e" font-size="9.5" opacity="0.7">Protected</text>
  </g>

  <!-- Web Server (protected) -->
  <g transform="translate(645, 280)" filter="url(#shadow)">
    <rect x="-56" y="-30" width="112" height="125" rx="12" fill="#1e1b2e" stroke="#22c55e" stroke-width="1.5"/>
    <g transform="translate(0, 14)">
      <rect x="-20" y="-18" width="40" height="12" rx="3" fill="none" stroke="#3b82f6" stroke-width="1.5"/>
      <circle cx="-12" cy="-12" r="2" fill="#3b82f6"/><circle cx="-5" cy="-12" r="2" fill="#3b82f6"/>
      <rect x="-20" y="-2" width="40" height="12" rx="3" fill="none" stroke="#3b82f6" stroke-width="1.5"/>
      <circle cx="-12" cy="4" r="2" fill="#3b82f6"/><circle cx="-5" cy="4" r="2" fill="#3b82f6"/>
      <rect x="-20" y="14" width="40" height="12" rx="3" fill="none" stroke="#3b82f6" stroke-width="1.5"/>
      <circle cx="-12" cy="20" r="2" fill="#3b82f6"/><circle cx="-5" cy="20" r="2" fill="#3b82f6"/>
    </g>
    <g transform="translate(42, -22)">
      <path d="M0,-9 L9,-4 L9,3 Q9,9 0,12 Q-9,9 -9,3 L-9,-4 Z" fill="#22c55e" opacity="0.2" stroke="#22c55e" stroke-width="1.2"/>
      <polyline points="-3,2 -1,5 5,-2" fill="none" stroke="#22c55e" stroke-width="1.5" stroke-linecap="round"/>
    </g>
    <text x="0" y="72" text-anchor="middle" fill="#86efac" font-size="13" font-weight="700">正規サーバー</text>
    <text x="0" y="86" text-anchor="middle" fill="#22c55e" font-size="9.5" opacity="0.7">CSRF Token検証</text>
  </g>

  <!-- ====================================================== -->
  <!--  BLOCKED ARROWS                                         -->
  <!-- ====================================================== -->

  <!-- Step 1: Attacker → Victim (dimmed, still happens) -->
  <path d="M 170 250 Q 250 170 324 250" fill="none" stroke="#ef4444" stroke-width="2" stroke-dasharray="8,4" marker-end="url(#arrowRed)" opacity="0.25"/>

  <!-- Step 2: Victim → Server (dimmed POST without CSRF token) -->
  <path d="M 436 290 L 560 290" fill="none" stroke="#a855f7" stroke-width="2" marker-end="url(#arrowPurple)" opacity="0.35"/>

  <!-- Block X: Server rejects — no CSRF token -->
  <g transform="translate(575, 290)">
    <circle cx="0" cy="0" r="16" fill="#052e16" stroke="#22c55e" stroke-width="2" filter="url(#glowGreen)"/>
    <line x1="-6" y1="-6" x2="6" y2="6" stroke="#22c55e" stroke-width="2.5" stroke-linecap="round"/>
    <line x1="6" y1="-6" x2="-6" y2="6" stroke="#22c55e" stroke-width="2.5" stroke-linecap="round"/>
  </g>
  <text x="575" y="320" text-anchor="middle" fill="#86efac" font-size="9" font-weight="600">トークン不一致</text>
  <text x="575" y="332" text-anchor="middle" fill="#86efac" font-size="9" font-weight="600">→ 403 Forbidden</text>

  <!-- ====================================================== -->
  <!--  DEFENSE POINT 1: CSRF Token (between victim & server)  -->
  <!-- ====================================================== -->
  <g transform="translate(510, 440)" filter="url(#shadow)">
    <rect x="-95" y="-20" width="190" height="90" rx="8" fill="#052e16" stroke="#22c55e" stroke-width="1.5"/>
    <!-- Token/ticket icon -->
    <g transform="translate(-60, 22)">
      <rect x="-11" y="-8" width="22" height="16" rx="3" fill="none" stroke="#22c55e" stroke-width="1.4"/>
      <line x1="-4" y1="-3" x2="4" y2="-3" stroke="#22c55e" stroke-width="0.8"/>
      <line x1="-4" y1="1" x2="4" y2="1" stroke="#22c55e" stroke-width="0.8"/>
      <circle cx="0" cy="5" r="1.5" fill="#22c55e"/>
    </g>
    <text x="12" y="-3" text-anchor="middle" fill="#86efac" font-size="12" font-weight="700">CSRFトークン</text>
    <text x="12" y="13" text-anchor="middle" fill="#bbf7d0" font-size="9">正規フォームのみが持つ秘密の値</text>
    <line x1="-80" y1="22" x2="80" y2="22" stroke="#22c55e" stroke-width="0.5" opacity="0.4"/>
    <text x="0" y="40" text-anchor="middle" fill="#22c55e" font-size="9" font-family="'Fira Code', monospace">token = randomBytes(32)</text>
    <text x="0" y="56" text-anchor="middle" fill="#22c55e" font-size="9" font-family="'Fira Code', monospace">if (req.token !== expected) 403</text>
  </g>

  <!-- ====================================================== -->
  <!--  DEFENSE POINT 2: SameSite Cookie                       -->
  <!-- ====================================================== -->
  <g transform="translate(260, 440)" filter="url(#shadow)">
    <rect x="-95" y="-20" width="190" height="90" rx="8" fill="#052e16" stroke="#22c55e" stroke-width="1.5"/>
    <!-- Cookie + lock icon -->
    <g transform="translate(-60, 22)">
      <circle cx="0" cy="0" r="7" fill="none" stroke="#22c55e" stroke-width="1.4"/>
      <circle cx="-3" cy="-2" r="1.5" fill="#22c55e"/>
      <circle cx="3" cy="1" r="1.5" fill="#22c55e"/>
    </g>
    <text x="12" y="-3" text-anchor="middle" fill="#86efac" font-size="12" font-weight="700">SameSite Cookie</text>
    <text x="12" y="13" text-anchor="middle" fill="#bbf7d0" font-size="9">クロスサイトでCookieを送信しない</text>
    <line x1="-80" y1="22" x2="80" y2="22" stroke="#22c55e" stroke-width="0.5" opacity="0.4"/>
    <text x="0" y="40" text-anchor="middle" fill="#22c55e" font-size="9" font-family="'Fira Code', monospace">Set-Cookie: sid=xxx;</text>
    <text x="0" y="56" text-anchor="middle" fill="#22c55e" font-size="9" font-family="'Fira Code', monospace">SameSite=Strict</text>
  </g>

  <!-- ====================================================== -->
  <!--  DEFENSE POINT 3: Origin/Referer Validation              -->
  <!-- ====================================================== -->
  <g transform="translate(385, 590)" filter="url(#shadow)">
    <rect x="-150" y="-20" width="300" height="72" rx="8" fill="#052e16" stroke="#22c55e" stroke-width="1.5"/>
    <!-- Eye/monitor icon -->
    <g transform="translate(-112, 14)">
      <ellipse cx="0" cy="0" rx="9" ry="6" fill="none" stroke="#22c55e" stroke-width="1.4"/>
      <circle cx="0" cy="0" r="3" fill="#22c55e" opacity="0.5"/>
      <circle cx="0" cy="0" r="1.5" fill="#22c55e"/>
    </g>
    <text x="10" y="-2" text-anchor="middle" fill="#86efac" font-size="12" font-weight="700">Origin / Referer 検証</text>
    <text x="10" y="14" text-anchor="middle" fill="#bbf7d0" font-size="9">リクエスト送信元ドメインを確認して不正な送信元を拒否</text>
    <line x1="-136" y1="24" x2="136" y2="24" stroke="#22c55e" stroke-width="0.5" opacity="0.4"/>
    <text x="10" y="42" text-anchor="middle" fill="#22c55e" font-size="9" font-family="'Fira Code', monospace">if (origin !== 'https://target.com') reject()</text>
  </g>

  <!-- ====================================================== -->
  <!--  DEFENSE SIDEBAR                                        -->
  <!-- ====================================================== -->
  <g transform="translate(785, 100)">
    <rect x="0" y="0" width="295" height="340" rx="10" fill="#0f172a" stroke="#22c55e" stroke-width="1"/>
    <text x="148" y="28" text-anchor="middle" fill="#86efac" font-size="14" font-weight="700">防御レイヤー一覧</text>
    <line x1="14" y1="42" x2="281" y2="42" stroke="#22c55e" stroke-width="0.5" opacity="0.5"/>

    <!-- Layer 1: CSRF Token -->
    <g transform="translate(18, 64)">
      <rect x="0" y="-8" width="18" height="18" rx="4" fill="#22c55e" opacity="0.15"/>
      <text x="9" y="6" text-anchor="middle" fill="#22c55e" font-size="11" font-weight="700">1</text>
      <text x="28" y="2" fill="#f8fafc" font-size="11" font-weight="600">CSRFトークン</text>
      <text x="28" y="18" fill="#94a3b8" font-size="9">正規フォームだけが持つ秘密値を</text>
      <text x="28" y="31" fill="#94a3b8" font-size="9">サーバー側で検証 (根本対策)</text>
    </g>

    <!-- Layer 2: SameSite Cookie -->
    <g transform="translate(18, 130)">
      <rect x="0" y="-8" width="18" height="18" rx="4" fill="#22c55e" opacity="0.15"/>
      <text x="9" y="6" text-anchor="middle" fill="#22c55e" font-size="11" font-weight="700">2</text>
      <text x="28" y="2" fill="#f8fafc" font-size="11" font-weight="600">SameSite Cookie</text>
      <text x="28" y="18" fill="#94a3b8" font-size="9">クロスサイトリクエストに</text>
      <text x="28" y="31" fill="#94a3b8" font-size="9">Cookieを付与しない (根本対策)</text>
    </g>

    <!-- Layer 3: Origin / Referer -->
    <g transform="translate(18, 196)">
      <rect x="0" y="-8" width="18" height="18" rx="4" fill="#22c55e" opacity="0.15"/>
      <text x="9" y="6" text-anchor="middle" fill="#22c55e" font-size="11" font-weight="700">3</text>
      <text x="28" y="2" fill="#f8fafc" font-size="11" font-weight="600">Origin / Referer 検証</text>
      <text x="28" y="18" fill="#94a3b8" font-size="9">送信元ドメインを確認し</text>
      <text x="28" y="31" fill="#94a3b8" font-size="9">外部サイトからの送信を拒否</text>
    </g>

    <!-- Layer 4: Re-authentication -->
    <g transform="translate(18, 262)">
      <rect x="0" y="-8" width="18" height="18" rx="4" fill="#22c55e" opacity="0.15"/>
      <text x="9" y="6" text-anchor="middle" fill="#22c55e" font-size="11" font-weight="700">4</text>
      <text x="28" y="2" fill="#f8fafc" font-size="11" font-weight="600">重要操作での再認証</text>
      <text x="28" y="18" fill="#94a3b8" font-size="9">パスワード変更時に現在の</text>
      <text x="28" y="31" fill="#94a3b8" font-size="9">パスワード再入力を要求</text>
    </g>

    <!-- Defense-in-depth note -->
    <line x1="14" y1="306" x2="281" y2="306" stroke="#22c55e" stroke-width="0.5" opacity="0.5"/>
    <text x="148" y="328" text-anchor="middle" fill="#4ade80" font-size="10" font-weight="600">🔒 多層防御 (Defense in Depth)</text>
  </g>

  <!-- ===== Legend ===== -->
  <g transform="translate(30, 730)">
    <rect x="0" y="0" width="360" height="36" rx="6" fill="#0f172a" stroke="#334155" stroke-width="1"/>
    <line x1="14" y1="18" x2="44" y2="18" stroke="#ef4444" stroke-width="2" stroke-dasharray="4,3" opacity="0.3"/>
    <text x="52" y="22" fill="#fca5a5" font-size="9" opacity="0.6">遮断された攻撃</text>
    <g transform="translate(172, 18)">
      <circle cx="0" cy="0" r="8" fill="#052e16" stroke="#22c55e" stroke-width="1.2"/>
      <line x1="-3" y1="-3" x2="3" y2="3" stroke="#22c55e" stroke-width="1.5" stroke-linecap="round"/>
      <line x1="3" y1="-3" x2="-3" y2="3" stroke="#22c55e" stroke-width="1.5" stroke-linecap="round"/>
    </g>
    <text x="188" y="22" fill="#86efac" font-size="9">ブロックポイント</text>
    <rect x="282" y="10" width="16" height="16" rx="3" fill="#052e16" stroke="#22c55e" stroke-width="1"/>
    <text x="304" y="22" fill="#86efac" font-size="9">防御機構</text>
  </g>

</svg>
