<svg xmlns="http://www.w3.org/2000/svg" viewBox="0 0 1100 780" font-family="'Segoe UI', 'Helvetica Neue', Arial, sans-serif">
  <defs>
    <linearGradient id="bgGrad" x1="0" y1="0" x2="0" y2="1">
      <stop offset="0%" stop-color="#0f172a"/>
      <stop offset="100%" stop-color="#1e293b"/>
    </linearGradient>
    <filter id="shadow">
      <feDropShadow dx="0" dy="2" stdDeviation="4" flood-color="#000" flood-opacity="0.35"/>
    </filter>
    <filter id="glowGreen">
      <feGaussianBlur stdDeviation="3" result="blur"/>
      <feMerge><feMergeNode in="blur"/><feMergeNode in="SourceGraphic"/></feMerge>
    </filter>
    <marker id="arrowRed" markerWidth="10" markerHeight="7" refX="9" refY="3.5" orient="auto">
      <polygon points="0 0, 10 3.5, 0 7" fill="#ef4444"/>
    </marker>
    <marker id="arrowBlue" markerWidth="10" markerHeight="7" refX="9" refY="3.5" orient="auto">
      <polygon points="0 0, 10 3.5, 0 7" fill="#3b82f6"/>
    </marker>
  </defs>

  <!-- Background -->
  <rect width="1100" height="780" fill="url(#bgGrad)" rx="12"/>

  <!-- ===== Title ===== -->
  <text x="380" y="38" text-anchor="middle" fill="#f8fafc" font-size="22" font-weight="700">SSRF — Defense Strategy</text>
  <text x="380" y="58" text-anchor="middle" fill="#94a3b8" font-size="12">サーバーサイドリクエストフォージェリに対する多層防御</text>
  <rect x="310" y="66" width="140" height="20" rx="10" fill="#22c55e" opacity="0.15"/>
  <text x="380" y="80" text-anchor="middle" fill="#86efac" font-size="10" font-weight="600">Multi-Layer Defense</text>

  <!-- ====================================================== -->
  <!--  ACTORS                                                 -->
  <!-- ====================================================== -->

  <!-- Attacker (dimmed) -->
  <g transform="translate(115, 280)" filter="url(#shadow)">
    <rect x="-56" y="-30" width="112" height="125" rx="12" fill="#1e1b2e" stroke="#ef4444" stroke-width="1.5" opacity="0.45"/>
    <g transform="translate(0, 10)" opacity="0.45">
      <path d="M-13,-17 Q0,-28 13,-17 L13,-4 Q0,2 -13,-4 Z" fill="none" stroke="#ef4444" stroke-width="1.8"/>
      <circle cx="-4" cy="-9" r="1.8" fill="#ef4444"/>
      <circle cx="4" cy="-9" r="1.8" fill="#ef4444"/>
      <path d="M-17,36 Q-17,14 0,10 Q17,14 17,36" fill="none" stroke="#ef4444" stroke-width="2"/>
      <line x1="-17" y1="36" x2="17" y2="36" stroke="#ef4444" stroke-width="2" stroke-linecap="round"/>
    </g>
    <text x="0" y="72" text-anchor="middle" fill="#fca5a5" font-size="13" font-weight="700" opacity="0.5">攻撃者</text>
    <text x="0" y="86" text-anchor="middle" fill="#ef4444" font-size="9.5" opacity="0.35">Attacker</text>
  </g>

  <!-- Web Server (protected — green border) -->
  <g transform="translate(400, 280)" filter="url(#shadow)">
    <rect x="-56" y="-30" width="112" height="125" rx="12" fill="#1e1b2e" stroke="#22c55e" stroke-width="1.5"/>
    <g transform="translate(0, 14)">
      <rect x="-20" y="-18" width="40" height="12" rx="3" fill="none" stroke="#3b82f6" stroke-width="1.5"/>
      <circle cx="-12" cy="-12" r="2" fill="#3b82f6"/><circle cx="-5" cy="-12" r="2" fill="#3b82f6"/>
      <rect x="-20" y="-2" width="40" height="12" rx="3" fill="none" stroke="#3b82f6" stroke-width="1.5"/>
      <circle cx="-12" cy="4" r="2" fill="#3b82f6"/><circle cx="-5" cy="4" r="2" fill="#3b82f6"/>
      <rect x="-20" y="14" width="40" height="12" rx="3" fill="none" stroke="#3b82f6" stroke-width="1.5"/>
      <circle cx="-12" cy="20" r="2" fill="#3b82f6"/><circle cx="-5" cy="20" r="2" fill="#3b82f6"/>
    </g>
    <!-- Shield badge -->
    <g transform="translate(42, -22)">
      <path d="M0,-9 L9,-4 L9,3 Q9,9 0,12 Q-9,9 -9,3 L-9,-4 Z" fill="#22c55e" opacity="0.2" stroke="#22c55e" stroke-width="1.2"/>
      <polyline points="-3,2 -1,5 5,-2" fill="none" stroke="#22c55e" stroke-width="1.5" stroke-linecap="round"/>
    </g>
    <text x="0" y="72" text-anchor="middle" fill="#86efac" font-size="13" font-weight="700">Webサーバー</text>
    <text x="0" y="86" text-anchor="middle" fill="#22c55e" font-size="9.5" opacity="0.7">Protected App</text>
  </g>

  <!-- Internal Service (protected — green border) -->
  <g transform="translate(645, 280)" filter="url(#shadow)">
    <rect x="-56" y="-30" width="112" height="125" rx="12" fill="#1e1b2e" stroke="#22c55e" stroke-width="1.5"/>
    <g transform="translate(0, 10)">
      <rect x="-20" y="-16" width="40" height="28" rx="4" fill="none" stroke="#f97316" stroke-width="1.5"/>
      <line x1="-20" y1="-4" x2="20" y2="-4" stroke="#f97316" stroke-width="0.8"/>
      <line x1="-20" y1="4" x2="20" y2="4" stroke="#f97316" stroke-width="0.8"/>
      <circle cx="-12" cy="-10" r="2" fill="#f97316"/>
      <circle cx="-5" cy="-10" r="2" fill="#f97316"/>
      <text x="0" y="0" text-anchor="middle" fill="#f97316" font-size="7" font-weight="600">169.254</text>
      <text x="0" y="10" text-anchor="middle" fill="#f97316" font-size="7" font-weight="600">.169.254</text>
      <rect x="-8" y="18" width="16" height="11" rx="2" fill="none" stroke="#f97316" stroke-width="1.2"/>
      <path d="M-4,18 L-4,14 Q-4,9 0,9 Q4,9 4,14 L4,18" fill="none" stroke="#f97316" stroke-width="1.2"/>
    </g>
    <!-- Shield badge -->
    <g transform="translate(42, -22)">
      <path d="M0,-9 L9,-4 L9,3 Q9,9 0,12 Q-9,9 -9,3 L-9,-4 Z" fill="#22c55e" opacity="0.2" stroke="#22c55e" stroke-width="1.2"/>
      <polyline points="-3,2 -1,5 5,-2" fill="none" stroke="#22c55e" stroke-width="1.5" stroke-linecap="round"/>
    </g>
    <text x="0" y="72" text-anchor="middle" fill="#86efac" font-size="13" font-weight="700">内部サービス</text>
    <text x="0" y="86" text-anchor="middle" fill="#22c55e" font-size="9.5" opacity="0.7">Protected</text>
  </g>

  <!-- ====================================================== -->
  <!--  BLOCKED ARROWS (dimmed attack flow)                    -->
  <!-- ====================================================== -->

  <!-- Step 1: Attacker → Server (dimmed, request still arrives) -->
  <path d="M 171 270 L 342 270" fill="none" stroke="#ef4444" stroke-width="2" stroke-dasharray="8,4" marker-end="url(#arrowRed)" opacity="0.25"/>

  <!-- Step 2: Server → Internal BLOCKED -->
  <path d="M 458 270 L 540 270" fill="none" stroke="#ef4444" stroke-width="2" stroke-dasharray="4,3" opacity="0.2"/>
  <!-- Block mark on outgoing request -->
  <g transform="translate(555, 270)">
    <circle cx="0" cy="0" r="16" fill="#052e16" stroke="#22c55e" stroke-width="2" filter="url(#glowGreen)"/>
    <line x1="-6" y1="-6" x2="6" y2="6" stroke="#22c55e" stroke-width="2.5" stroke-linecap="round"/>
    <line x1="6" y1="-6" x2="-6" y2="6" stroke="#22c55e" stroke-width="2.5" stroke-linecap="round"/>
  </g>

  <!-- Step 4: Server → Attacker error response -->
  <path d="M 342 300 L 171 300" fill="none" stroke="#3b82f6" stroke-width="2" marker-end="url(#arrowBlue)" opacity="0.5"/>
  <text x="257" y="318" text-anchor="middle" fill="#86efac" font-size="9" font-weight="600">403 Forbidden</text>

  <!-- ====================================================== -->
  <!--  DEFENSE POINT 1: URL Validation (between attacker and server) -->
  <!-- ====================================================== -->
  <g transform="translate(260, 210)" filter="url(#shadow)">
    <rect x="-52" y="-58" width="104" height="175" rx="8" fill="#052e16" stroke="#22c55e" stroke-width="1.5"/>
    <!-- Funnel icon -->
    <g transform="translate(0, -28)">
      <polygon points="-11,-13 11,-13 4,2 4,10 -4,10 -4,2" fill="none" stroke="#22c55e" stroke-width="1.4" stroke-linejoin="round"/>
    </g>
    <text x="0" y="18" text-anchor="middle" fill="#86efac" font-size="11" font-weight="700">プロトコル</text>
    <text x="0" y="31" text-anchor="middle" fill="#86efac" font-size="11" font-weight="700">検証</text>
    <text x="0" y="46" text-anchor="middle" fill="#bbf7d0" font-size="8">http/httpsのみ許可</text>
    <text x="0" y="58" text-anchor="middle" fill="#bbf7d0" font-size="8">file:// gopher:// を拒否</text>
    <line x1="-38" y1="68" x2="38" y2="68" stroke="#22c55e" stroke-width="0.5" opacity="0.4"/>
    <text x="0" y="82" text-anchor="middle" fill="#22c55e" font-size="8" font-family="'Fira Code', monospace">protocol === 'http:'</text>
    <text x="0" y="96" text-anchor="middle" fill="#22c55e" font-size="8" font-family="'Fira Code', monospace">|| 'https:'</text>
  </g>

  <!-- ====================================================== -->
  <!--  DEFENSE POINT 2: IP Address Validation (on server)     -->
  <!-- ====================================================== -->
  <g transform="translate(400, 470)" filter="url(#shadow)">
    <rect x="-105" y="-20" width="210" height="95" rx="8" fill="#052e16" stroke="#22c55e" stroke-width="1.5"/>
    <!-- Shield icon -->
    <g transform="translate(-68, 22)">
      <path d="M0,-13 L12,-6 L12,3 Q12,11 0,15 Q-12,11 -12,3 L-12,-6 Z" fill="none" stroke="#22c55e" stroke-width="1.4"/>
      <polyline points="-4,1 -1,5 6,-4" fill="none" stroke="#22c55e" stroke-width="1.8" stroke-linecap="round" stroke-linejoin="round"/>
    </g>
    <text x="12" y="-3" text-anchor="middle" fill="#86efac" font-size="12" font-weight="700">DNS解決 + IP検証</text>
    <text x="12" y="13" text-anchor="middle" fill="#bbf7d0" font-size="9">プライベートIPへのリクエスト拒否</text>
    <line x1="-90" y1="24" x2="90" y2="24" stroke="#22c55e" stroke-width="0.5" opacity="0.4"/>
    <text x="0" y="40" text-anchor="middle" fill="#22c55e" font-size="8.5" font-family="'Fira Code', monospace">dns.resolve4(hostname)</text>
    <text x="0" y="54" text-anchor="middle" fill="#22c55e" font-size="8.5" font-family="'Fira Code', monospace">addresses.some(isPrivateIP)</text>
    <text x="0" y="68" text-anchor="middle" fill="#22c55e" font-size="8.5" font-family="'Fira Code', monospace">→ 403 Forbidden</text>
  </g>

  <!-- ====================================================== -->
  <!--  DEFENSE POINT 3: URL Allowlist                         -->
  <!-- ====================================================== -->
  <g transform="translate(645, 470)" filter="url(#shadow)">
    <rect x="-95" y="-20" width="190" height="90" rx="8" fill="#052e16" stroke="#22c55e" stroke-width="1.5"/>
    <!-- List icon -->
    <g transform="translate(-60, 20)">
      <rect x="-10" y="-12" width="20" height="24" rx="2" fill="none" stroke="#22c55e" stroke-width="1.2"/>
      <line x1="-6" y1="-6" x2="6" y2="-6" stroke="#22c55e" stroke-width="1"/>
      <line x1="-6" y1="0" x2="6" y2="0" stroke="#22c55e" stroke-width="1"/>
      <line x1="-6" y1="6" x2="6" y2="6" stroke="#22c55e" stroke-width="1"/>
    </g>
    <text x="12" y="-3" text-anchor="middle" fill="#86efac" font-size="12" font-weight="700">URLホワイトリスト</text>
    <text x="12" y="13" text-anchor="middle" fill="#bbf7d0" font-size="9">許可ドメインのみアクセス可</text>
    <line x1="-80" y1="22" x2="80" y2="22" stroke="#22c55e" stroke-width="0.5" opacity="0.4"/>
    <text x="0" y="40" text-anchor="middle" fill="#22c55e" font-size="9" font-family="'Fira Code', monospace">allowedDomains.includes(</text>
    <text x="0" y="56" text-anchor="middle" fill="#22c55e" font-size="9" font-family="'Fira Code', monospace">  parsed.hostname)</text>
  </g>

  <!-- ====================================================== -->
  <!--  DEFENSE POINT 4: IMDSv2 (Cloud)                        -->
  <!-- ====================================================== -->
  <g transform="translate(520, 610)" filter="url(#shadow)">
    <rect x="-150" y="-20" width="300" height="72" rx="8" fill="#052e16" stroke="#22c55e" stroke-width="1.5"/>
    <!-- Lock icon -->
    <g transform="translate(-112, 14)">
      <rect x="-9" y="-2" width="18" height="14" rx="3" fill="none" stroke="#22c55e" stroke-width="1.4"/>
      <path d="M-5,-2 L-5,-7 Q-5,-12 0,-12 Q5,-12 5,-7 L5,-2" fill="none" stroke="#22c55e" stroke-width="1.4"/>
      <circle cx="0" cy="5" r="2" fill="#22c55e"/>
      <line x1="0" y1="7" x2="0" y2="10" stroke="#22c55e" stroke-width="1.4" stroke-linecap="round"/>
    </g>
    <text x="10" y="-2" text-anchor="middle" fill="#86efac" font-size="12" font-weight="700">IMDSv2 (AWS)</text>
    <text x="10" y="14" text-anchor="middle" fill="#bbf7d0" font-size="9">トークンベースのメタデータアクセスでSSRFを緩和</text>
    <line x1="-136" y1="24" x2="136" y2="24" stroke="#22c55e" stroke-width="0.5" opacity="0.4"/>
    <text x="10" y="42" text-anchor="middle" fill="#22c55e" font-size="9" font-family="'Fira Code', monospace">PUT /latest/api/token (X-aws-ec2-metadata-token-ttl)</text>
  </g>

  <!-- ====================================================== -->
  <!--  DEFENSE SIDEBAR (right)                                -->
  <!-- ====================================================== -->
  <g transform="translate(785, 100)">
    <rect x="0" y="0" width="295" height="340" rx="10" fill="#0f172a" stroke="#22c55e" stroke-width="1"/>
    <text x="148" y="28" text-anchor="middle" fill="#86efac" font-size="14" font-weight="700">防御レイヤー一覧</text>
    <line x1="14" y1="42" x2="281" y2="42" stroke="#22c55e" stroke-width="0.5" opacity="0.5"/>

    <!-- Layer 1: Protocol Validation -->
    <g transform="translate(18, 64)">
      <rect x="0" y="-8" width="18" height="18" rx="4" fill="#22c55e" opacity="0.15"/>
      <text x="9" y="6" text-anchor="middle" fill="#22c55e" font-size="11" font-weight="700">1</text>
      <text x="28" y="2" fill="#f8fafc" font-size="11" font-weight="600">プロトコル検証</text>
      <text x="28" y="18" fill="#94a3b8" font-size="9">http/https のみ許可し、</text>
      <text x="28" y="31" fill="#94a3b8" font-size="9">file:// gopher:// を拒否</text>
    </g>

    <!-- Layer 2: DNS + Private IP -->
    <g transform="translate(18, 130)">
      <rect x="0" y="-8" width="18" height="18" rx="4" fill="#22c55e" opacity="0.15"/>
      <text x="9" y="6" text-anchor="middle" fill="#22c55e" font-size="11" font-weight="700">2</text>
      <text x="28" y="2" fill="#f8fafc" font-size="11" font-weight="600">DNS解決 + プライベートIP拒否</text>
      <text x="28" y="18" fill="#94a3b8" font-size="9">ホスト名をIPに解決し、</text>
      <text x="28" y="31" fill="#94a3b8" font-size="9">10.x/172.16.x/192.168.x/127.x を拒否</text>
    </g>

    <!-- Layer 3: URL Allowlist -->
    <g transform="translate(18, 196)">
      <rect x="0" y="-8" width="18" height="18" rx="4" fill="#22c55e" opacity="0.15"/>
      <text x="9" y="6" text-anchor="middle" fill="#22c55e" font-size="11" font-weight="700">3</text>
      <text x="28" y="2" fill="#f8fafc" font-size="11" font-weight="600">URLホワイトリスト</text>
      <text x="28" y="18" fill="#94a3b8" font-size="9">許可するドメインのリストを管理し</text>
      <text x="28" y="31" fill="#94a3b8" font-size="9">それ以外へのリクエストを拒否</text>
    </g>

    <!-- Layer 4: IMDSv2 -->
    <g transform="translate(18, 262)">
      <rect x="0" y="-8" width="18" height="18" rx="4" fill="#22c55e" opacity="0.15"/>
      <text x="9" y="6" text-anchor="middle" fill="#22c55e" font-size="11" font-weight="700">4</text>
      <text x="28" y="2" fill="#f8fafc" font-size="11" font-weight="600">IMDSv2 (AWS)</text>
      <text x="28" y="18" fill="#94a3b8" font-size="9">トークンベースのメタデータアクセスで</text>
      <text x="28" y="31" fill="#94a3b8" font-size="9">単純なSSRFではアクセス不可に</text>
    </g>

    <!-- Defense-in-depth note -->
    <line x1="14" y1="306" x2="281" y2="306" stroke="#22c55e" stroke-width="0.5" opacity="0.5"/>
    <text x="148" y="328" text-anchor="middle" fill="#4ade80" font-size="10" font-weight="600">🔒 多層防御 (Defense in Depth)</text>
  </g>

  <!-- ===== Legend ===== -->
  <g transform="translate(30, 730)">
    <rect x="0" y="0" width="360" height="36" rx="6" fill="#0f172a" stroke="#334155" stroke-width="1"/>
    <line x1="14" y1="18" x2="44" y2="18" stroke="#ef4444" stroke-width="2" stroke-dasharray="4,3" opacity="0.3"/>
    <text x="52" y="22" fill="#fca5a5" font-size="9" opacity="0.6">遮断された攻撃</text>
    <g transform="translate(172, 18)">
      <circle cx="0" cy="0" r="8" fill="#052e16" stroke="#22c55e" stroke-width="1.2"/>
      <line x1="-3" y1="-3" x2="3" y2="3" stroke="#22c55e" stroke-width="1.5" stroke-linecap="round"/>
      <line x1="3" y1="-3" x2="-3" y2="3" stroke="#22c55e" stroke-width="1.5" stroke-linecap="round"/>
    </g>
    <text x="188" y="22" fill="#86efac" font-size="9">ブロックポイント</text>
    <rect x="282" y="10" width="16" height="16" rx="3" fill="#052e16" stroke="#22c55e" stroke-width="1"/>
    <text x="304" y="22" fill="#86efac" font-size="9">防御機構</text>
  </g>

</svg>
