<svg xmlns="http://www.w3.org/2000/svg" viewBox="0 0 1100 750" font-family="'Segoe UI', 'Helvetica Neue', Arial, sans-serif">
  <defs>
    <linearGradient id="bgGrad" x1="0" y1="0" x2="0" y2="1">
      <stop offset="0%" stop-color="#0f172a"/>
      <stop offset="100%" stop-color="#1e293b"/>
    </linearGradient>
    <filter id="shadow">
      <feDropShadow dx="0" dy="2" stdDeviation="4" flood-color="#000" flood-opacity="0.35"/>
    </filter>
    <filter id="glowGreen">
      <feGaussianBlur stdDeviation="3" result="blur"/>
      <feMerge><feMergeNode in="blur"/><feMergeNode in="SourceGraphic"/></feMerge>
    </filter>
    <marker id="arrowRed" markerWidth="10" markerHeight="7" refX="9" refY="3.5" orient="auto">
      <polygon points="0 0, 10 3.5, 0 7" fill="#ef4444"/>
    </marker>
    <marker id="arrowGreen" markerWidth="10" markerHeight="7" refX="9" refY="3.5" orient="auto">
      <polygon points="0 0, 10 3.5, 0 7" fill="#22c55e"/>
    </marker>
  </defs>

  <!-- Background -->
  <rect width="1100" height="750" fill="url(#bgGrad)" rx="12"/>

  <!-- ===== Title ===== -->
  <text x="380" y="38" text-anchor="middle" fill="#f8fafc" font-size="22" font-weight="700">Mass Assignment — Defense Strategy</text>
  <text x="380" y="58" text-anchor="middle" fill="#94a3b8" font-size="12">パラメータ一括代入に対する防御</text>
  <rect x="310" y="66" width="140" height="20" rx="10" fill="#22c55e" opacity="0.15"/>
  <text x="380" y="80" text-anchor="middle" fill="#86efac" font-size="10" font-weight="600">Multi-Layer Defense</text>

  <!-- ====================================================== -->
  <!--  ACTORS                                                 -->
  <!-- ====================================================== -->

  <!-- Attacker (dimmed) -->
  <g transform="translate(115, 280)" filter="url(#shadow)">
    <rect x="-56" y="-30" width="112" height="125" rx="12" fill="#1e1b2e" stroke="#ef4444" stroke-width="1.5" opacity="0.45"/>
    <g transform="translate(0, 10)" opacity="0.45">
      <!-- Hooded figure -->
      <path d="M-13,-17 Q0,-28 13,-17 L13,-4 Q0,2 -13,-4 Z" fill="none" stroke="#ef4444" stroke-width="1.8"/>
      <circle cx="-4" cy="-9" r="1.8" fill="#ef4444"/>
      <circle cx="4" cy="-9" r="1.8" fill="#ef4444"/>
      <path d="M-17,36 Q-17,14 0,10 Q17,14 17,36" fill="none" stroke="#ef4444" stroke-width="2"/>
      <line x1="-17" y1="36" x2="17" y2="36" stroke="#ef4444" stroke-width="2" stroke-linecap="round"/>
    </g>
    <text x="0" y="72" text-anchor="middle" fill="#fca5a5" font-size="13" font-weight="700" opacity="0.5">攻撃者</text>
    <text x="0" y="86" text-anchor="middle" fill="#ef4444" font-size="9.5" opacity="0.35">Attacker</text>
  </g>

  <!-- Web Server (protected) -->
  <g transform="translate(400, 280)" filter="url(#shadow)">
    <rect x="-56" y="-30" width="112" height="125" rx="12" fill="#1e1b2e" stroke="#22c55e" stroke-width="1.5"/>
    <g transform="translate(0, 14)">
      <!-- Rack server icon -->
      <rect x="-20" y="-18" width="40" height="12" rx="3" fill="none" stroke="#3b82f6" stroke-width="1.5"/>
      <circle cx="-12" cy="-12" r="2" fill="#3b82f6"/><circle cx="-5" cy="-12" r="2" fill="#3b82f6"/>
      <rect x="-20" y="-2" width="40" height="12" rx="3" fill="none" stroke="#3b82f6" stroke-width="1.5"/>
      <circle cx="-12" cy="4" r="2" fill="#3b82f6"/><circle cx="-5" cy="4" r="2" fill="#3b82f6"/>
      <rect x="-20" y="14" width="40" height="12" rx="3" fill="none" stroke="#3b82f6" stroke-width="1.5"/>
      <circle cx="-12" cy="20" r="2" fill="#3b82f6"/><circle cx="-5" cy="20" r="2" fill="#3b82f6"/>
    </g>
    <!-- Shield badge -->
    <g transform="translate(42, -22)">
      <path d="M0,-9 L9,-4 L9,3 Q9,9 0,12 Q-9,9 -9,3 L-9,-4 Z" fill="#22c55e" opacity="0.2" stroke="#22c55e" stroke-width="1.2"/>
      <polyline points="-3,2 -1,5 5,-2" fill="none" stroke="#22c55e" stroke-width="1.5" stroke-linecap="round"/>
    </g>
    <text x="0" y="72" text-anchor="middle" fill="#86efac" font-size="13" font-weight="700">Webサーバー</text>
    <text x="0" y="86" text-anchor="middle" fill="#22c55e" font-size="9.5" opacity="0.7">Protected API</text>
  </g>

  <!-- Database (protected) -->
  <g transform="translate(645, 280)" filter="url(#shadow)">
    <rect x="-56" y="-30" width="112" height="125" rx="12" fill="#1e1b2e" stroke="#22c55e" stroke-width="1.5"/>
    <g transform="translate(0, 10)">
      <!-- Cylinder DB icon -->
      <ellipse cx="0" cy="-14" rx="20" ry="8" fill="none" stroke="#f59e0b" stroke-width="1.5"/>
      <path d="M-20,-14 L-20,14" fill="none" stroke="#f59e0b" stroke-width="1.5"/>
      <path d="M20,-14 L20,14" fill="none" stroke="#f59e0b" stroke-width="1.5"/>
      <ellipse cx="0" cy="14" rx="20" ry="8" fill="none" stroke="#f59e0b" stroke-width="1.5"/>
      <path d="M-20,0 Q0,8 20,0" fill="none" stroke="#f59e0b" stroke-width="0.8" opacity="0.5"/>
    </g>
    <!-- Shield badge -->
    <g transform="translate(42, -22)">
      <path d="M0,-9 L9,-4 L9,3 Q9,9 0,12 Q-9,9 -9,3 L-9,-4 Z" fill="#22c55e" opacity="0.2" stroke="#22c55e" stroke-width="1.2"/>
      <polyline points="-3,2 -1,5 5,-2" fill="none" stroke="#22c55e" stroke-width="1.5" stroke-linecap="round"/>
    </g>
    <text x="0" y="72" text-anchor="middle" fill="#86efac" font-size="13" font-weight="700">データベース</text>
    <text x="0" y="86" text-anchor="middle" fill="#22c55e" font-size="9.5" opacity="0.7">Protected</text>
  </g>

  <!-- ====================================================== -->
  <!--  BLOCKED ARROWS                                         -->
  <!-- ====================================================== -->

  <!-- Dimmed attack arrow: Attacker → Server -->
  <path d="M 171 270 L 310 270" fill="none" stroke="#ef4444" stroke-width="2" stroke-dasharray="4,3" opacity="0.3" marker-end="url(#arrowRed)"/>

  <!-- Attack request body (dimmed) -->
  <g transform="translate(240, 240)">
    <rect x="-110" y="-12" width="220" height="22" rx="4" fill="#0f172a" stroke="#ef4444" stroke-width="0.8" opacity="0.5"/>
    <text x="0" y="3" text-anchor="middle" fill="#94a3b8" font-size="8.5" font-family="'Fira Code', monospace" opacity="0.6">
      <tspan fill="#64748b">POST </tspan><tspan fill="#93c5fd">&#123;...,"</tspan><tspan fill="#ef4444">role</tspan><tspan fill="#93c5fd">":"</tspan><tspan fill="#ef4444">admin</tspan><tspan fill="#93c5fd">"&#125;</tspan>
    </text>
  </g>

  <!-- Block X between attacker and server -->
  <g transform="translate(330, 270)">
    <circle cx="0" cy="0" r="16" fill="#052e16" stroke="#22c55e" stroke-width="2" filter="url(#glowGreen)"/>
    <line x1="-6" y1="-6" x2="6" y2="6" stroke="#22c55e" stroke-width="2.5" stroke-linecap="round"/>
    <line x1="6" y1="-6" x2="-6" y2="6" stroke="#22c55e" stroke-width="2.5" stroke-linecap="round"/>
  </g>

  <!-- 403/ignored response -->
  <path d="M 342 295 L 171 295" fill="none" stroke="#22c55e" stroke-width="2.2" marker-end="url(#arrowGreen)"/>
  <g transform="translate(260, 316)">
    <rect x="-60" y="-11" width="120" height="22" rx="4" fill="#052e16" stroke="#22c55e" stroke-width="1"/>
    <text x="0" y="4" text-anchor="middle" fill="#86efac" font-size="10" font-weight="600">role フィールド無視</text>
  </g>

  <!-- ====================================================== -->
  <!--  DEFENSE CARD 1: ホワイトリスト方式                       -->
  <!-- ====================================================== -->
  <g transform="translate(170, 460)" filter="url(#shadow)">
    <rect x="-130" y="-22" width="260" height="110" rx="8" fill="#052e16" stroke="#22c55e" stroke-width="1.5"/>
    <!-- Shield icon -->
    <g transform="translate(-94, 20)">
      <path d="M0,-13 L12,-6 L12,3 Q12,11 0,15 Q-12,11 -12,3 L-12,-6 Z" fill="none" stroke="#22c55e" stroke-width="1.4"/>
      <polyline points="-4,1 -1,5 6,-4" fill="none" stroke="#22c55e" stroke-width="1.8" stroke-linecap="round" stroke-linejoin="round"/>
    </g>
    <text x="16" y="-4" text-anchor="middle" fill="#86efac" font-size="12" font-weight="700">ホワイトリスト方式</text>
    <text x="16" y="14" text-anchor="middle" fill="#bbf7d0" font-size="9">許可フィールドのみ抽出して処理</text>
    <line x1="-116" y1="24" x2="116" y2="24" stroke="#22c55e" stroke-width="0.5" opacity="0.4"/>
    <text x="0" y="42" text-anchor="middle" fill="#22c55e" font-size="8.5" font-family="'Fira Code', monospace">const &#123;username,email,password&#125;</text>
    <text x="0" y="56" text-anchor="middle" fill="#22c55e" font-size="8.5" font-family="'Fira Code', monospace">  = body</text>
    <text x="0" y="70" text-anchor="middle" fill="#22c55e" font-size="8.5" font-family="'Fira Code', monospace">const role = 'user' // 固定値</text>
    <text x="0" y="84" text-anchor="middle" fill="#4ade80" font-size="8">roleは常にサーバー側で設定</text>
  </g>

  <!-- ====================================================== -->
  <!--  DEFENSE CARD 2: スキーマバリデーション                     -->
  <!-- ====================================================== -->
  <g transform="translate(470, 460)" filter="url(#shadow)">
    <rect x="-130" y="-22" width="260" height="110" rx="8" fill="#052e16" stroke="#22c55e" stroke-width="1.5"/>
    <!-- Validation icon -->
    <g transform="translate(-94, 18)">
      <rect x="-9" y="-2" width="18" height="14" rx="3" fill="none" stroke="#22c55e" stroke-width="1.4"/>
      <path d="M-5,-2 L-5,-7 Q-5,-12 0,-12 Q5,-12 5,-7 L5,-2" fill="none" stroke="#22c55e" stroke-width="1.4"/>
      <circle cx="0" cy="5" r="2" fill="#22c55e"/>
    </g>
    <text x="16" y="-4" text-anchor="middle" fill="#86efac" font-size="12" font-weight="700">スキーマバリデーション</text>
    <text x="16" y="14" text-anchor="middle" fill="#bbf7d0" font-size="9">Zod / Joi で入力スキーマを定義</text>
    <line x1="-116" y1="24" x2="116" y2="24" stroke="#22c55e" stroke-width="0.5" opacity="0.4"/>
    <text x="0" y="42" text-anchor="middle" fill="#22c55e" font-size="8.5" font-family="'Fira Code', monospace">const schema = z.object(&#123;</text>
    <text x="0" y="56" text-anchor="middle" fill="#22c55e" font-size="8.5" font-family="'Fira Code', monospace">  username: z.string(),</text>
    <text x="0" y="70" text-anchor="middle" fill="#22c55e" font-size="8.5" font-family="'Fira Code', monospace">  email: z.string().email(),</text>
    <text x="0" y="84" text-anchor="middle" fill="#4ade80" font-size="8">未定義フィールドは自動で除外</text>
  </g>

  <!-- ====================================================== -->
  <!--  DEFENSE CARD 3: DTOパターン                              -->
  <!-- ====================================================== -->
  <g transform="translate(330, 600)" filter="url(#shadow)">
    <rect x="-160" y="-18" width="320" height="80" rx="8" fill="#052e16" stroke="#22c55e" stroke-width="1.5"/>
    <!-- DTO icon -->
    <g transform="translate(-124, 20)">
      <rect x="-10" y="-8" width="20" height="16" rx="3" fill="none" stroke="#22c55e" stroke-width="1.3"/>
      <circle cx="0" cy="0" r="4" fill="none" stroke="#22c55e" stroke-width="1.2"/>
      <line x1="0" y1="4" x2="0" y2="7" stroke="#22c55e" stroke-width="1.2"/>
    </g>
    <text x="16" y="0" text-anchor="middle" fill="#86efac" font-size="12" font-weight="700">DTOパターン</text>
    <text x="16" y="16" text-anchor="middle" fill="#bbf7d0" font-size="9">DB Entity と API Input/Output を分離</text>
    <line x1="-146" y1="26" x2="146" y2="26" stroke="#22c55e" stroke-width="0.5" opacity="0.4"/>
    <text x="0" y="42" text-anchor="middle" fill="#22c55e" font-size="8.5" font-family="'Fira Code', monospace">CreateUserDTO ≠ UserEntity</text>
    <text x="0" y="56" text-anchor="middle" fill="#4ade80" font-size="8">APIの入出力型とDB型を明確に分離し、意図しないフィールド混入を防止</text>
  </g>

  <!-- ====================================================== -->
  <!--  DEFENSE SIDEBAR (right)                                -->
  <!-- ====================================================== -->
  <g transform="translate(785, 100)">
    <rect x="0" y="0" width="295" height="370" rx="10" fill="#0f172a" stroke="#22c55e" stroke-width="1"/>
    <text x="148" y="28" text-anchor="middle" fill="#86efac" font-size="14" font-weight="700">防御レイヤー一覧</text>
    <line x1="14" y1="42" x2="281" y2="42" stroke="#22c55e" stroke-width="0.5" opacity="0.5"/>

    <!-- Layer 1: Whitelist Extraction -->
    <g transform="translate(18, 64)">
      <rect x="0" y="-8" width="18" height="18" rx="4" fill="#22c55e" opacity="0.15"/>
      <text x="9" y="6" text-anchor="middle" fill="#22c55e" font-size="11" font-weight="700">1</text>
      <text x="28" y="2" fill="#f8fafc" font-size="11" font-weight="600">ホワイトリスト抽出（根本対策）</text>
      <text x="28" y="18" fill="#94a3b8" font-size="9">許可フィールドのみを明示的に</text>
      <text x="28" y="31" fill="#94a3b8" font-size="9">抽出し、roleは固定値で設定</text>
    </g>

    <!-- Layer 2: Schema Validation -->
    <g transform="translate(18, 130)">
      <rect x="0" y="-8" width="18" height="18" rx="4" fill="#22c55e" opacity="0.15"/>
      <text x="9" y="6" text-anchor="middle" fill="#22c55e" font-size="11" font-weight="700">2</text>
      <text x="28" y="2" fill="#f8fafc" font-size="11" font-weight="600">スキーマバリデーション</text>
      <text x="28" y="18" fill="#94a3b8" font-size="9">Zod / Joi で入力の型と</text>
      <text x="28" y="31" fill="#94a3b8" font-size="9">許可フィールドを厳密に定義</text>
    </g>

    <!-- Layer 3: DTO Pattern -->
    <g transform="translate(18, 196)">
      <rect x="0" y="-8" width="18" height="18" rx="4" fill="#22c55e" opacity="0.15"/>
      <text x="9" y="6" text-anchor="middle" fill="#22c55e" font-size="11" font-weight="700">3</text>
      <text x="28" y="2" fill="#f8fafc" font-size="11" font-weight="600">DTOパターン</text>
      <text x="28" y="18" fill="#94a3b8" font-size="9">API入出力とDB Entityの</text>
      <text x="28" y="31" fill="#94a3b8" font-size="9">型定義を分離して管理</text>
    </g>

    <!-- Layer 4: Logging & Monitoring -->
    <g transform="translate(18, 262)">
      <rect x="0" y="-8" width="18" height="18" rx="4" fill="#22c55e" opacity="0.15"/>
      <text x="9" y="6" text-anchor="middle" fill="#22c55e" font-size="11" font-weight="700">4</text>
      <text x="28" y="2" fill="#f8fafc" font-size="11" font-weight="600">ログ記録＋監視</text>
      <text x="28" y="18" fill="#94a3b8" font-size="9">未知フィールドの送信を検知し</text>
      <text x="28" y="31" fill="#94a3b8" font-size="9">攻撃試行をアラート通知</text>
    </g>

    <!-- Defense-in-depth note -->
    <line x1="14" y1="326" x2="281" y2="326" stroke="#22c55e" stroke-width="0.5" opacity="0.5"/>
    <text x="148" y="348" text-anchor="middle" fill="#4ade80" font-size="10" font-weight="600">🔒 多層防御 (Defense in Depth)</text>
  </g>

  <!-- ===== Legend ===== -->
  <g transform="translate(30, 700)">
    <rect x="0" y="0" width="360" height="36" rx="6" fill="#0f172a" stroke="#334155" stroke-width="1"/>
    <line x1="14" y1="18" x2="44" y2="18" stroke="#ef4444" stroke-width="2" stroke-dasharray="4,3" opacity="0.3"/>
    <text x="52" y="22" fill="#fca5a5" font-size="9" opacity="0.6">遮断された攻撃</text>
    <g transform="translate(172, 18)">
      <circle cx="0" cy="0" r="8" fill="#052e16" stroke="#22c55e" stroke-width="1.2"/>
      <line x1="-3" y1="-3" x2="3" y2="3" stroke="#22c55e" stroke-width="1.5" stroke-linecap="round"/>
      <line x1="3" y1="-3" x2="-3" y2="3" stroke="#22c55e" stroke-width="1.5" stroke-linecap="round"/>
    </g>
    <text x="188" y="22" fill="#86efac" font-size="9">ブロックポイント</text>
    <rect x="282" y="10" width="16" height="16" rx="3" fill="#052e16" stroke="#22c55e" stroke-width="1"/>
    <text x="304" y="22" fill="#86efac" font-size="9">防御機構</text>
  </g>

</svg>