<svg xmlns="http://www.w3.org/2000/svg" viewBox="0 0 1100 750" font-family="'Segoe UI', 'Helvetica Neue', Arial, sans-serif">
  <defs>
    <linearGradient id="bgGrad" x1="0" y1="0" x2="0" y2="1">
      <stop offset="0%" stop-color="#0f172a"/>
      <stop offset="100%" stop-color="#1e293b"/>
    </linearGradient>
    <filter id="glow">
      <feGaussianBlur stdDeviation="2.5" result="blur"/>
      <feMerge><feMergeNode in="blur"/><feMergeNode in="SourceGraphic"/></feMerge>
    </filter>
    <filter id="shadow">
      <feDropShadow dx="0" dy="2" stdDeviation="4" flood-color="#000" flood-opacity="0.35"/>
    </filter>
    <marker id="arrowRed" markerWidth="10" markerHeight="7" refX="9" refY="3.5" orient="auto">
      <polygon points="0 0, 10 3.5, 0 7" fill="#ef4444"/>
    </marker>
    <marker id="arrowBlue" markerWidth="10" markerHeight="7" refX="9" refY="3.5" orient="auto">
      <polygon points="0 0, 10 3.5, 0 7" fill="#3b82f6"/>
    </marker>
    <marker id="arrowOrange" markerWidth="10" markerHeight="7" refX="9" refY="3.5" orient="auto">
      <polygon points="0 0, 10 3.5, 0 7" fill="#f97316"/>
    </marker>
  </defs>

  <!-- Background -->
  <rect width="1100" height="750" fill="url(#bgGrad)" rx="12"/>

  <!-- ===== Title ===== -->
  <text x="380" y="38" text-anchor="middle" fill="#f8fafc" font-size="22" font-weight="700">Directory Listing Attack Flow</text>
  <text x="380" y="58" text-anchor="middle" fill="#94a3b8" font-size="12">ディレクトリリスティングによる情報漏洩 — 攻撃の流れ</text>
  <rect x="268" y="66" width="225" height="20" rx="10" fill="#ef4444" opacity="0.15"/>
  <text x="380" y="80" text-anchor="middle" fill="#fca5a5" font-size="10" font-weight="600">OWASP A05 — Security Misconfiguration</text>

  <!-- ====================================================== -->
  <!--  ACTORS                                                 -->
  <!-- ====================================================== -->

  <!-- Attacker -->
  <g transform="translate(200, 250)" filter="url(#shadow)">
    <rect x="-56" y="-30" width="112" height="125" rx="12" fill="#1e1b2e" stroke="#ef4444" stroke-width="1.5"/>
    <g transform="translate(0, 10)">
      <path d="M-13,-17 Q0,-28 13,-17 L13,-4 Q0,2 -13,-4 Z" fill="none" stroke="#ef4444" stroke-width="1.8"/>
      <circle cx="-4" cy="-9" r="1.8" fill="#ef4444"/>
      <circle cx="4" cy="-9" r="1.8" fill="#ef4444"/>
      <path d="M-17,36 Q-17,14 0,10 Q17,14 17,36" fill="none" stroke="#ef4444" stroke-width="2"/>
      <line x1="-17" y1="36" x2="17" y2="36" stroke="#ef4444" stroke-width="2" stroke-linecap="round"/>
    </g>
    <text x="0" y="72" text-anchor="middle" fill="#fca5a5" font-size="13" font-weight="700">攻撃者</text>
    <text x="0" y="86" text-anchor="middle" fill="#ef4444" font-size="9.5" opacity="0.7">Attacker</text>
  </g>

  <!-- Web Server -->
  <g transform="translate(550, 250)" filter="url(#shadow)">
    <rect x="-56" y="-30" width="112" height="125" rx="12" fill="#1e1b2e" stroke="#3b82f6" stroke-width="1.5"/>
    <g transform="translate(0, 14)">
      <rect x="-20" y="-18" width="40" height="12" rx="3" fill="none" stroke="#3b82f6" stroke-width="1.5"/>
      <circle cx="-12" cy="-12" r="2" fill="#3b82f6"/><circle cx="-5" cy="-12" r="2" fill="#3b82f6"/>
      <rect x="-20" y="-2" width="40" height="12" rx="3" fill="none" stroke="#3b82f6" stroke-width="1.5"/>
      <circle cx="-12" cy="4" r="2" fill="#3b82f6"/><circle cx="-5" cy="4" r="2" fill="#3b82f6"/>
      <rect x="-20" y="14" width="40" height="12" rx="3" fill="none" stroke="#3b82f6" stroke-width="1.5"/>
      <circle cx="-12" cy="20" r="2" fill="#3b82f6"/><circle cx="-5" cy="20" r="2" fill="#3b82f6"/>
    </g>
    <text x="0" y="72" text-anchor="middle" fill="#93c5fd" font-size="13" font-weight="700">Webサーバー</text>
    <text x="0" y="86" text-anchor="middle" fill="#3b82f6" font-size="9.5" opacity="0.7">Vulnerable App</text>
  </g>

  <!-- ====================================================== -->
  <!--  ARROWS                                                 -->
  <!-- ====================================================== -->

  <!-- Step 1: Attacker → Server: request /static/ -->
  <path d="M 258 235 L 492 235" fill="none" stroke="#ef4444" stroke-width="2.2" stroke-dasharray="8,4" marker-end="url(#arrowRed)" filter="url(#glow)"/>
  <circle cx="375" cy="213" r="16" fill="#ef4444"/>
  <text x="375" y="218" text-anchor="middle" fill="#fff" font-size="13" font-weight="700">1</text>

  <!-- Step 2: Server → Attacker: file listing -->
  <path d="M 492 280 L 258 280" fill="none" stroke="#3b82f6" stroke-width="2.2" marker-end="url(#arrowBlue)"/>
  <circle cx="375" cy="302" r="16" fill="#3b82f6"/>
  <text x="375" y="307" text-anchor="middle" fill="#fff" font-size="13" font-weight="700">2</text>

  <!-- Step 3: Attacker → analyze (vertical) -->
  <path d="M 200 345 L 200 400" fill="none" stroke="#ef4444" stroke-width="2.2" stroke-dasharray="6,3" marker-end="url(#arrowRed)"/>
  <circle cx="224" cy="373" r="16" fill="#ef4444"/>
  <text x="224" y="378" text-anchor="middle" fill="#fff" font-size="13" font-weight="700">3</text>

  <!-- ===== Directory listing box (right of server) ===== -->
  <g transform="translate(550, 420)" filter="url(#shadow)">
    <rect x="-120" y="-22" width="240" height="115" rx="8" fill="#451a03" stroke="#f97316" stroke-width="1"/>
    <text x="0" y="-4" text-anchor="middle" fill="#fdba74" font-size="11" font-weight="700">⚠ 公開されるファイル一覧</text>
    <line x1="-106" y1="6" x2="106" y2="6" stroke="#f97316" stroke-width="0.5" opacity="0.4"/>
    <text x="-90" y="24" fill="#fb923c" font-size="9" font-family="'Fira Code', monospace">Index of /static/</text>
    <text x="-90" y="40" fill="#94a3b8" font-size="9" font-family="'Fira Code', monospace">  config.json      4.2KB</text>
    <text x="-90" y="54" fill="#94a3b8" font-size="9" font-family="'Fira Code', monospace">  backup.sql       12MB</text>
    <text x="-90" y="68" fill="#ef4444" font-size="9" font-family="'Fira Code', monospace">  admin-key.pem    1.6KB</text>
    <text x="-90" y="82" fill="#94a3b8" font-size="9" font-family="'Fira Code', monospace">  debug.log        8.4MB</text>
  </g>

  <!-- ===== Attacker analysis box ===== -->
  <g transform="translate(200, 438)" filter="url(#shadow)">
    <rect x="-105" y="-22" width="210" height="58" rx="8" fill="#1e1b2e" stroke="#ef4444" stroke-width="1.2" stroke-dasharray="4,2"/>
    <rect x="-95" y="-14" width="190" height="13" rx="3" fill="#0f172a"/>
    <circle cx="-85" cy="-8" r="2.5" fill="#ef4444"/>
    <circle cx="-77" cy="-8" r="2.5" fill="#f59e0b"/>
    <circle cx="-69" cy="-8" r="2.5" fill="#22c55e"/>
    <text x="0" y="10" text-anchor="middle" fill="#fca5a5" font-size="10" font-weight="600">隠しファイルの発見</text>
    <text x="0" y="24" text-anchor="middle" fill="#94a3b8" font-size="9" font-family="'Fira Code', monospace">backup.sql, admin-key.pem</text>
  </g>

  <!-- Step 4: Attacker → Server: request hidden files (rendered after boxes for z-order) -->
  <path d="M 310 450 L 425 450" fill="none" stroke="#ef4444" stroke-width="2.2" stroke-dasharray="8,4" marker-end="url(#arrowRed)" filter="url(#glow)"/>
  <circle cx="367" cy="430" r="16" fill="#ef4444"/>
  <text x="367" y="435" text-anchor="middle" fill="#fff" font-size="13" font-weight="700">4</text>

  <!-- Step 5: Server → Attacker: sensitive data (rendered after boxes for z-order) -->
  <path d="M 425 475 L 310 475" fill="none" stroke="#3b82f6" stroke-width="2.2" marker-end="url(#arrowBlue)"/>
  <circle cx="367" cy="495" r="16" fill="#3b82f6"/>
  <text x="367" y="500" text-anchor="middle" fill="#fff" font-size="13" font-weight="700">5</text>

  <!-- ===== Request example ===== -->
  <g transform="translate(375, 170)">
    <rect x="-155" y="-14" width="310" height="28" rx="5" fill="#0f172a" stroke="#334155" stroke-width="1"/>
    <text x="0" y="4" text-anchor="middle" fill="#94a3b8" font-size="9.5" font-family="'Fira Code', monospace">
      <tspan fill="#ef4444">GET </tspan><tspan fill="#93c5fd">http://target:3000/</tspan><tspan fill="#ef4444">static/</tspan>
    </text>
  </g>

  <!-- ====================================================== -->
  <!--  STEP LIST (right sidebar)                              -->
  <!-- ====================================================== -->
  <g transform="translate(775, 100)">
    <rect x="0" y="0" width="305" height="320" rx="10" fill="#0f172a" stroke="#334155" stroke-width="1"/>
    <text x="152" y="28" text-anchor="middle" fill="#e2e8f0" font-size="14" font-weight="700">攻撃ステップ詳細</text>
    <line x1="16" y1="40" x2="289" y2="40" stroke="#334155" stroke-width="1"/>

    <!-- Step 1 -->
    <circle cx="34" cy="68" r="13" fill="#ef4444"/>
    <text x="34" y="73" text-anchor="middle" fill="#fff" font-size="11" font-weight="700">1</text>
    <text x="56" y="64" fill="#f8fafc" font-size="11.5" font-weight="600">ディレクトリへアクセス</text>
    <text x="56" y="80" fill="#94a3b8" font-size="9.5">/static/ 等のディレクトリに</text>
    <text x="56" y="93" fill="#94a3b8" font-size="9.5">直接アクセスしてファイル一覧取得</text>

    <!-- Step 2 -->
    <circle cx="34" cy="124" r="13" fill="#3b82f6"/>
    <text x="34" y="129" text-anchor="middle" fill="#fff" font-size="11" font-weight="700">2</text>
    <text x="56" y="120" fill="#f8fafc" font-size="11.5" font-weight="600">ファイル一覧の表示</text>
    <text x="56" y="136" fill="#94a3b8" font-size="9.5">サーバーがディレクトリインデックス</text>
    <text x="56" y="149" fill="#94a3b8" font-size="9.5">を生成し、全ファイルが閲覧可能</text>

    <!-- Step 3 -->
    <circle cx="34" cy="180" r="13" fill="#ef4444"/>
    <text x="34" y="185" text-anchor="middle" fill="#fff" font-size="11" font-weight="700">3</text>
    <text x="56" y="176" fill="#f8fafc" font-size="11.5" font-weight="600">機密ファイルの特定</text>
    <text x="56" y="192" fill="#94a3b8" font-size="9.5">一覧からバックアップ・設定・</text>
    <text x="56" y="205" fill="#94a3b8" font-size="9.5">鍵ファイル等の存在を確認</text>

    <!-- Step 4 -->
    <circle cx="34" cy="236" r="13" fill="#ef4444"/>
    <text x="34" y="241" text-anchor="middle" fill="#fff" font-size="11" font-weight="700">4</text>
    <text x="56" y="232" fill="#f8fafc" font-size="11.5" font-weight="600">機密ファイルのダウンロード</text>
    <text x="56" y="248" fill="#94a3b8" font-size="9.5">backup.sql, admin-key.pem等の</text>
    <text x="56" y="261" fill="#94a3b8" font-size="9.5">重要ファイルを直接取得</text>

    <!-- Step 5 -->
    <circle cx="34" cy="292" r="13" fill="#3b82f6"/>
    <text x="34" y="297" text-anchor="middle" fill="#fff" font-size="11" font-weight="700">5</text>
    <text x="56" y="288" fill="#f8fafc" font-size="11.5" font-weight="600">窃取データの受信</text>
    <text x="56" y="304" fill="#94a3b8" font-size="9.5">DBダンプ・秘密鍵等を</text>
    <text x="56" y="317" fill="#94a3b8" font-size="9.5">取得しさらなる攻撃に利用</text>
  </g>

  <!-- ====================================================== -->
  <!--  ATTACK TECHNIQUE CARDS (bottom)                        -->
  <!-- ====================================================== -->
  <line x1="30" y1="660" x2="1070" y2="660" stroke="#334155" stroke-width="1"/>
  <text x="550" y="685" text-anchor="middle" fill="#fca5a5" font-size="14" font-weight="700">🔥 使用される攻撃テクニック</text>

  <!-- Card: Directory Traversal -->
  <g transform="translate(165, 698)" filter="url(#shadow)">
    <rect x="-120" y="0" width="240" height="38" rx="8" fill="#1e1b2e" stroke="#ef4444" stroke-width="1"/>
    <rect x="-108" y="6" width="28" height="26" rx="5" fill="#ef4444" opacity="0.1"/>
    <g transform="translate(-94, 19)">
      <rect x="-7" y="-7" width="14" height="14" rx="1" fill="none" stroke="#ef4444" stroke-width="1.2"/>
      <line x1="-3" y1="-3" x2="-3" y2="5" stroke="#ef4444" stroke-width="1"/>
      <line x1="-3" y1="0" x2="3" y2="0" stroke="#ef4444" stroke-width="1"/>
      <line x1="3" y1="0" x2="3" y2="5" stroke="#ef4444" stroke-width="1"/>
    </g>
    <text x="10" y="16" text-anchor="middle" fill="#f8fafc" font-size="11" font-weight="600">Directory Traversal</text>
    <text x="10" y="30" text-anchor="middle" fill="#94a3b8" font-size="8.5">上位ディレクトリへの探索</text>
  </g>

  <!-- Card: File Enumeration -->
  <g transform="translate(465, 698)" filter="url(#shadow)">
    <rect x="-120" y="0" width="240" height="38" rx="8" fill="#1e1b2e" stroke="#ef4444" stroke-width="1"/>
    <rect x="-108" y="6" width="28" height="26" rx="5" fill="#ef4444" opacity="0.1"/>
    <g transform="translate(-94, 19)">
      <rect x="-7" y="-7" width="11" height="14" rx="1" fill="none" stroke="#ef4444" stroke-width="1"/>
      <line x1="-4" y1="-2" x2="1" y2="-2" stroke="#ef4444" stroke-width="0.8"/>
      <line x1="-4" y1="1" x2="1" y2="1" stroke="#ef4444" stroke-width="0.8"/>
      <line x1="-4" y1="4" x2="1" y2="4" stroke="#ef4444" stroke-width="0.8"/>
      <rect x="-1" y="-4" width="9" height="12" rx="1" fill="#1e1b2e" stroke="#ef4444" stroke-width="1"/>
    </g>
    <text x="10" y="16" text-anchor="middle" fill="#f8fafc" font-size="11" font-weight="600">File Enumeration</text>
    <text x="10" y="30" text-anchor="middle" fill="#94a3b8" font-size="8.5">ファイル一覧からの情報収集</text>
  </g>

  <!-- Card: Backup File Download -->
  <g transform="translate(765, 698)" filter="url(#shadow)">
    <rect x="-120" y="0" width="240" height="38" rx="8" fill="#1e1b2e" stroke="#ef4444" stroke-width="1"/>
    <rect x="-108" y="6" width="28" height="26" rx="5" fill="#ef4444" opacity="0.1"/>
    <g transform="translate(-94, 19)">
      <rect x="-7" y="-5" width="14" height="10" rx="2" fill="none" stroke="#ef4444" stroke-width="1.2"/>
      <line x1="0" y1="-1" x2="0" y2="3" stroke="#ef4444" stroke-width="1.2"/>
      <polyline points="-3,1 0,4 3,1" fill="none" stroke="#ef4444" stroke-width="1.2" stroke-linecap="round"/>
    </g>
    <text x="10" y="16" text-anchor="middle" fill="#f8fafc" font-size="11" font-weight="600">Backup Download</text>
    <text x="10" y="30" text-anchor="middle" fill="#94a3b8" font-size="8.5">バックアップファイルの窃取</text>
  </g>

  <!-- ===== Legend ===== -->
  <g transform="translate(775, 445)">
    <rect x="0" y="0" width="305" height="68" rx="6" fill="#0f172a" stroke="#334155" stroke-width="1"/>
    <text x="14" y="18" fill="#94a3b8" font-size="10" font-weight="600">凡例</text>
    <line x1="14" y1="34" x2="44" y2="34" stroke="#ef4444" stroke-width="2" stroke-dasharray="6,3"/>
    <text x="52" y="38" fill="#fca5a5" font-size="9.5">攻撃通信</text>
    <line x1="152" y1="34" x2="182" y2="34" stroke="#3b82f6" stroke-width="2"/>
    <text x="190" y="38" fill="#93c5fd" font-size="9.5">サーバー応答</text>
    <line x1="14" y1="54" x2="44" y2="54" stroke="#f97316" stroke-width="2"/>
    <text x="52" y="58" fill="#fdba74" font-size="9.5">分析フロー</text>
    <rect x="152" y="48" width="12" height="12" rx="2" fill="#451a03" stroke="#f97316" stroke-width="0.8"/>
    <text x="170" y="58" fill="#fdba74" font-size="9.5">脆弱性ポイント</text>
  </g>

</svg>
